ISO-10303-21;
HEADER;
/* Generated by software containing ST-Developer
 * from STEP Tools, Inc. (www.steptools.com) 
 */

FILE_DESCRIPTION(
/* description */ (''),
/* implementation_level */ '2;1');

FILE_NAME(
/* name */ 
'C:\\Users\\er9852\\OneDrive - Princeton University\\Documents\\Vac Ch
amber builds\\Beam Monitor\\paddleWheels\\STEP Files\\3mmKnifeEdgeDisk.
stp',
/* time_stamp */ '2022-06-06T14:18:53-04:00',
/* author */ ('er9852'),
/* organization */ (''),
/* preprocessor_version */ 'ST-DEVELOPER v18.1',
/* originating_system */ 'Autodesk Inventor 2022',
/* authorisation */ '');

FILE_SCHEMA (('AUTOMOTIVE_DESIGN { 1 0 10303 214 3 1 1 }'));
ENDSEC;

DATA;
#10=MECHANICAL_DESIGN_GEOMETRIC_PRESENTATION_REPRESENTATION('',(#13),#365);
#11=SHAPE_REPRESENTATION_RELATIONSHIP('SRR','None',#375,#12);
#12=ADVANCED_BREP_SHAPE_REPRESENTATION('',(#14),#364);
#13=STYLED_ITEM('',(#384),#14);
#14=MANIFOLD_SOLID_BREP('Solid1',#203);
#15=FACE_BOUND('',#51,.T.);
#16=FACE_BOUND('',#52,.T.);
#17=FACE_BOUND('',#53,.T.);
#18=FACE_BOUND('',#54,.T.);
#19=FACE_BOUND('',#55,.T.);
#20=FACE_BOUND('',#56,.T.);
#21=FACE_BOUND('',#57,.T.);
#22=FACE_BOUND('',#59,.T.);
#23=FACE_BOUND('',#60,.T.);
#24=FACE_BOUND('',#61,.T.);
#25=FACE_BOUND('',#62,.T.);
#26=FACE_BOUND('',#63,.T.);
#27=FACE_BOUND('',#64,.T.);
#28=FACE_BOUND('',#65,.T.);
#29=PLANE('',#247);
#30=PLANE('',#248);
#31=CONICAL_SURFACE('',#241,0.0590551181102362,1.23229844501686);
#32=FACE_OUTER_BOUND('',#42,.T.);
#33=FACE_OUTER_BOUND('',#43,.T.);
#34=FACE_OUTER_BOUND('',#44,.T.);
#35=FACE_OUTER_BOUND('',#45,.T.);
#36=FACE_OUTER_BOUND('',#46,.T.);
#37=FACE_OUTER_BOUND('',#47,.T.);
#38=FACE_OUTER_BOUND('',#48,.T.);
#39=FACE_OUTER_BOUND('',#49,.T.);
#40=FACE_OUTER_BOUND('',#50,.T.);
#41=FACE_OUTER_BOUND('',#58,.T.);
#42=EDGE_LOOP('',(#138,#139,#140,#141));
#43=EDGE_LOOP('',(#142,#143,#144,#145));
#44=EDGE_LOOP('',(#146,#147,#148,#149));
#45=EDGE_LOOP('',(#150,#151,#152,#153));
#46=EDGE_LOOP('',(#154,#155,#156,#157));
#47=EDGE_LOOP('',(#158,#159,#160,#161));
#48=EDGE_LOOP('',(#162,#163,#164,#165));
#49=EDGE_LOOP('',(#166,#167,#168,#169));
#50=EDGE_LOOP('',(#170));
#51=EDGE_LOOP('',(#171));
#52=EDGE_LOOP('',(#172));
#53=EDGE_LOOP('',(#173));
#54=EDGE_LOOP('',(#174));
#55=EDGE_LOOP('',(#175));
#56=EDGE_LOOP('',(#176));
#57=EDGE_LOOP('',(#177));
#58=EDGE_LOOP('',(#178));
#59=EDGE_LOOP('',(#179));
#60=EDGE_LOOP('',(#180));
#61=EDGE_LOOP('',(#181));
#62=EDGE_LOOP('',(#182));
#63=EDGE_LOOP('',(#183));
#64=EDGE_LOOP('',(#184));
#65=EDGE_LOOP('',(#185));
#66=LINE('',#316,#74);
#67=LINE('',#322,#75);
#68=LINE('',#328,#76);
#69=LINE('',#334,#77);
#70=LINE('',#340,#78);
#71=LINE('',#346,#79);
#72=LINE('',#352,#80);
#73=LINE('',#358,#81);
#74=VECTOR('',#255,0.0445);
#75=VECTOR('',#262,0.0445);
#76=VECTOR('',#269,0.0445);
#77=VECTOR('',#276,0.0445);
#78=VECTOR('',#283,0.0445);
#79=VECTOR('',#290,0.0445);
#80=VECTOR('',#297,0.0590551181102362);
#81=VECTOR('',#304,1.);
#82=CIRCLE('',#224,0.0445);
#83=CIRCLE('',#225,0.0445);
#84=CIRCLE('',#227,0.0445);
#85=CIRCLE('',#228,0.0445);
#86=CIRCLE('',#230,0.0445);
#87=CIRCLE('',#231,0.0445);
#88=CIRCLE('',#233,0.0445);
#89=CIRCLE('',#234,0.0445);
#90=CIRCLE('',#236,0.0445);
#91=CIRCLE('',#237,0.0445);
#92=CIRCLE('',#239,0.0445);
#93=CIRCLE('',#240,0.0445);
#94=CIRCLE('',#242,0.0590551181102362);
#95=CIRCLE('',#243,0.236587880411015);
#96=CIRCLE('',#245,1.);
#97=CIRCLE('',#246,1.);
#98=VERTEX_POINT('',#313);
#99=VERTEX_POINT('',#315);
#100=VERTEX_POINT('',#319);
#101=VERTEX_POINT('',#321);
#102=VERTEX_POINT('',#325);
#103=VERTEX_POINT('',#327);
#104=VERTEX_POINT('',#331);
#105=VERTEX_POINT('',#333);
#106=VERTEX_POINT('',#337);
#107=VERTEX_POINT('',#339);
#108=VERTEX_POINT('',#343);
#109=VERTEX_POINT('',#345);
#110=VERTEX_POINT('',#349);
#111=VERTEX_POINT('',#351);
#112=VERTEX_POINT('',#355);
#113=VERTEX_POINT('',#357);
#114=EDGE_CURVE('',#98,#98,#82,.T.);
#115=EDGE_CURVE('',#98,#99,#66,.T.);
#116=EDGE_CURVE('',#99,#99,#83,.T.);
#117=EDGE_CURVE('',#100,#100,#84,.T.);
#118=EDGE_CURVE('',#100,#101,#67,.T.);
#119=EDGE_CURVE('',#101,#101,#85,.T.);
#120=EDGE_CURVE('',#102,#102,#86,.T.);
#121=EDGE_CURVE('',#102,#103,#68,.T.);
#122=EDGE_CURVE('',#103,#103,#87,.T.);
#123=EDGE_CURVE('',#104,#104,#88,.T.);
#124=EDGE_CURVE('',#104,#105,#69,.T.);
#125=EDGE_CURVE('',#105,#105,#89,.T.);
#126=EDGE_CURVE('',#106,#106,#90,.T.);
#127=EDGE_CURVE('',#106,#107,#70,.T.);
#128=EDGE_CURVE('',#107,#107,#91,.T.);
#129=EDGE_CURVE('',#108,#108,#92,.T.);
#130=EDGE_CURVE('',#108,#109,#71,.T.);
#131=EDGE_CURVE('',#109,#109,#93,.T.);
#132=EDGE_CURVE('',#110,#110,#94,.T.);
#133=EDGE_CURVE('',#110,#111,#72,.T.);
#134=EDGE_CURVE('',#111,#111,#95,.T.);
#135=EDGE_CURVE('',#112,#112,#96,.T.);
#136=EDGE_CURVE('',#112,#113,#73,.T.);
#137=EDGE_CURVE('',#113,#113,#97,.T.);
#138=ORIENTED_EDGE('',*,*,#114,.F.);
#139=ORIENTED_EDGE('',*,*,#115,.T.);
#140=ORIENTED_EDGE('',*,*,#116,.F.);
#141=ORIENTED_EDGE('',*,*,#115,.F.);
#142=ORIENTED_EDGE('',*,*,#117,.F.);
#143=ORIENTED_EDGE('',*,*,#118,.T.);
#144=ORIENTED_EDGE('',*,*,#119,.F.);
#145=ORIENTED_EDGE('',*,*,#118,.F.);
#146=ORIENTED_EDGE('',*,*,#120,.F.);
#147=ORIENTED_EDGE('',*,*,#121,.T.);
#148=ORIENTED_EDGE('',*,*,#122,.F.);
#149=ORIENTED_EDGE('',*,*,#121,.F.);
#150=ORIENTED_EDGE('',*,*,#123,.F.);
#151=ORIENTED_EDGE('',*,*,#124,.T.);
#152=ORIENTED_EDGE('',*,*,#125,.F.);
#153=ORIENTED_EDGE('',*,*,#124,.F.);
#154=ORIENTED_EDGE('',*,*,#126,.F.);
#155=ORIENTED_EDGE('',*,*,#127,.T.);
#156=ORIENTED_EDGE('',*,*,#128,.F.);
#157=ORIENTED_EDGE('',*,*,#127,.F.);
#158=ORIENTED_EDGE('',*,*,#129,.F.);
#159=ORIENTED_EDGE('',*,*,#130,.T.);
#160=ORIENTED_EDGE('',*,*,#131,.F.);
#161=ORIENTED_EDGE('',*,*,#130,.F.);
#162=ORIENTED_EDGE('',*,*,#132,.F.);
#163=ORIENTED_EDGE('',*,*,#133,.T.);
#164=ORIENTED_EDGE('',*,*,#134,.F.);
#165=ORIENTED_EDGE('',*,*,#133,.F.);
#166=ORIENTED_EDGE('',*,*,#135,.F.);
#167=ORIENTED_EDGE('',*,*,#136,.T.);
#168=ORIENTED_EDGE('',*,*,#137,.T.);
#169=ORIENTED_EDGE('',*,*,#136,.F.);
#170=ORIENTED_EDGE('',*,*,#135,.T.);
#171=ORIENTED_EDGE('',*,*,#116,.T.);
#172=ORIENTED_EDGE('',*,*,#119,.T.);
#173=ORIENTED_EDGE('',*,*,#122,.T.);
#174=ORIENTED_EDGE('',*,*,#125,.T.);
#175=ORIENTED_EDGE('',*,*,#128,.T.);
#176=ORIENTED_EDGE('',*,*,#131,.T.);
#177=ORIENTED_EDGE('',*,*,#132,.T.);
#178=ORIENTED_EDGE('',*,*,#137,.F.);
#179=ORIENTED_EDGE('',*,*,#114,.T.);
#180=ORIENTED_EDGE('',*,*,#117,.T.);
#181=ORIENTED_EDGE('',*,*,#120,.T.);
#182=ORIENTED_EDGE('',*,*,#123,.T.);
#183=ORIENTED_EDGE('',*,*,#126,.T.);
#184=ORIENTED_EDGE('',*,*,#129,.T.);
#185=ORIENTED_EDGE('',*,*,#134,.T.);
#186=CYLINDRICAL_SURFACE('',#223,0.0445);
#187=CYLINDRICAL_SURFACE('',#226,0.0445);
#188=CYLINDRICAL_SURFACE('',#229,0.0445);
#189=CYLINDRICAL_SURFACE('',#232,0.0445);
#190=CYLINDRICAL_SURFACE('',#235,0.0445);
#191=CYLINDRICAL_SURFACE('',#238,0.0445);
#192=CYLINDRICAL_SURFACE('',#244,1.);
#193=ADVANCED_FACE('',(#32),#186,.F.);
#194=ADVANCED_FACE('',(#33),#187,.F.);
#195=ADVANCED_FACE('',(#34),#188,.F.);
#196=ADVANCED_FACE('',(#35),#189,.F.);
#197=ADVANCED_FACE('',(#36),#190,.F.);
#198=ADVANCED_FACE('',(#37),#191,.F.);
#199=ADVANCED_FACE('',(#38),#31,.F.);
#200=ADVANCED_FACE('',(#39),#192,.T.);
#201=ADVANCED_FACE('',(#40,#15,#16,#17,#18,#19,#20,#21),#29,.T.);
#202=ADVANCED_FACE('',(#41,#22,#23,#24,#25,#26,#27,#28),#30,.F.);
#203=CLOSED_SHELL('',(#193,#194,#195,#196,#197,#198,#199,#200,#201,#202));
#204=DERIVED_UNIT_ELEMENT(#206,1.);
#205=DERIVED_UNIT_ELEMENT(#369,-3.);
#206=(
MASS_UNIT()
NAMED_UNIT(*)
SI_UNIT($,.GRAM.)
);
#207=DERIVED_UNIT((#204,#205));
#208=MEASURE_REPRESENTATION_ITEM('density measure',
POSITIVE_RATIO_MEASURE(8.),#207);
#209=PROPERTY_DEFINITION_REPRESENTATION(#214,#211);
#210=PROPERTY_DEFINITION_REPRESENTATION(#215,#212);
#211=REPRESENTATION('material name',(#213),#364);
#212=REPRESENTATION('density',(#208),#364);
#213=DESCRIPTIVE_REPRESENTATION_ITEM('Stainless Steel',
'Stainless Steel');
#214=PROPERTY_DEFINITION('material property','material name',#377);
#215=PROPERTY_DEFINITION('material property','density of part',#377);
#216=DATE_TIME_ROLE('creation_date');
#217=APPLIED_DATE_AND_TIME_ASSIGNMENT(#218,#216,(#377));
#218=DATE_AND_TIME(#219,#220);
#219=CALENDAR_DATE(2022,10,5);
#220=LOCAL_TIME(0,0,0.,#221);
#221=COORDINATED_UNIVERSAL_TIME_OFFSET(0,0,.BEHIND.);
#222=AXIS2_PLACEMENT_3D('placement',#311,#249,#250);
#223=AXIS2_PLACEMENT_3D('',#312,#251,#252);
#224=AXIS2_PLACEMENT_3D('',#314,#253,#254);
#225=AXIS2_PLACEMENT_3D('',#317,#256,#257);
#226=AXIS2_PLACEMENT_3D('',#318,#258,#259);
#227=AXIS2_PLACEMENT_3D('',#320,#260,#261);
#228=AXIS2_PLACEMENT_3D('',#323,#263,#264);
#229=AXIS2_PLACEMENT_3D('',#324,#265,#266);
#230=AXIS2_PLACEMENT_3D('',#326,#267,#268);
#231=AXIS2_PLACEMENT_3D('',#329,#270,#271);
#232=AXIS2_PLACEMENT_3D('',#330,#272,#273);
#233=AXIS2_PLACEMENT_3D('',#332,#274,#275);
#234=AXIS2_PLACEMENT_3D('',#335,#277,#278);
#235=AXIS2_PLACEMENT_3D('',#336,#279,#280);
#236=AXIS2_PLACEMENT_3D('',#338,#281,#282);
#237=AXIS2_PLACEMENT_3D('',#341,#284,#285);
#238=AXIS2_PLACEMENT_3D('',#342,#286,#287);
#239=AXIS2_PLACEMENT_3D('',#344,#288,#289);
#240=AXIS2_PLACEMENT_3D('',#347,#291,#292);
#241=AXIS2_PLACEMENT_3D('',#348,#293,#294);
#242=AXIS2_PLACEMENT_3D('',#350,#295,#296);
#243=AXIS2_PLACEMENT_3D('',#353,#298,#299);
#244=AXIS2_PLACEMENT_3D('',#354,#300,#301);
#245=AXIS2_PLACEMENT_3D('',#356,#302,#303);
#246=AXIS2_PLACEMENT_3D('',#359,#305,#306);
#247=AXIS2_PLACEMENT_3D('',#360,#307,#308);
#248=AXIS2_PLACEMENT_3D('',#361,#309,#310);
#249=DIRECTION('axis',(0.,0.,1.));
#250=DIRECTION('refdir',(1.,0.,0.));
#251=DIRECTION('center_axis',(-1.,0.,0.));
#252=DIRECTION('ref_axis',(0.,0.866025403784439,0.499999999999999));
#253=DIRECTION('center_axis',(1.,0.,0.));
#254=DIRECTION('ref_axis',(0.,0.866025403784439,0.499999999999999));
#255=DIRECTION('',(1.,0.,0.));
#256=DIRECTION('center_axis',(-1.,0.,0.));
#257=DIRECTION('ref_axis',(0.,0.866025403784439,0.499999999999999));
#258=DIRECTION('center_axis',(-1.,0.,0.));
#259=DIRECTION('ref_axis',(0.,0.866025403784438,-0.5));
#260=DIRECTION('center_axis',(1.,0.,0.));
#261=DIRECTION('ref_axis',(0.,0.866025403784438,-0.5));
#262=DIRECTION('',(1.,0.,0.));
#263=DIRECTION('center_axis',(-1.,0.,0.));
#264=DIRECTION('ref_axis',(0.,0.866025403784438,-0.5));
#265=DIRECTION('center_axis',(-1.,0.,0.));
#266=DIRECTION('ref_axis',(0.,-1.84169527662759E-16,-1.));
#267=DIRECTION('center_axis',(1.,0.,0.));
#268=DIRECTION('ref_axis',(0.,-1.84169527662759E-16,-1.));
#269=DIRECTION('',(1.,0.,0.));
#270=DIRECTION('center_axis',(-1.,0.,0.));
#271=DIRECTION('ref_axis',(0.,-1.84169527662759E-16,-1.));
#272=DIRECTION('center_axis',(-1.,0.,0.));
#273=DIRECTION('ref_axis',(0.,-0.866025403784439,-0.5));
#274=DIRECTION('center_axis',(1.,0.,0.));
#275=DIRECTION('ref_axis',(0.,-0.866025403784439,-0.5));
#276=DIRECTION('',(1.,0.,0.));
#277=DIRECTION('center_axis',(-1.,0.,0.));
#278=DIRECTION('ref_axis',(0.,-0.866025403784439,-0.5));
#279=DIRECTION('center_axis',(-1.,0.,0.));
#280=DIRECTION('ref_axis',(0.,-0.866025403784439,0.5));
#281=DIRECTION('center_axis',(1.,0.,0.));
#282=DIRECTION('ref_axis',(0.,-0.866025403784439,0.5));
#283=DIRECTION('',(1.,0.,0.));
#284=DIRECTION('center_axis',(-1.,0.,0.));
#285=DIRECTION('ref_axis',(0.,-0.866025403784439,0.5));
#286=DIRECTION('center_axis',(-1.,0.,0.));
#287=DIRECTION('ref_axis',(0.,0.,1.));
#288=DIRECTION('center_axis',(1.,0.,0.));
#289=DIRECTION('ref_axis',(0.,0.,1.));
#290=DIRECTION('',(1.,0.,0.));
#291=DIRECTION('center_axis',(-1.,0.,0.));
#292=DIRECTION('ref_axis',(0.,0.,1.));
#293=DIRECTION('center_axis',(-1.,0.,0.));
#294=DIRECTION('ref_axis',(0.,0.,-1.));
#295=DIRECTION('center_axis',(-1.,0.,0.));
#296=DIRECTION('ref_axis',(0.,0.,-1.));
#297=DIRECTION('',(-0.33207058747818,1.15515365169997E-16,0.943254538781498));
#298=DIRECTION('center_axis',(1.,0.,0.));
#299=DIRECTION('ref_axis',(0.,0.,-1.));
#300=DIRECTION('center_axis',(1.,0.,0.));
#301=DIRECTION('ref_axis',(0.,1.,0.));
#302=DIRECTION('center_axis',(1.,0.,0.));
#303=DIRECTION('ref_axis',(0.,1.,0.));
#304=DIRECTION('',(-1.,0.,0.));
#305=DIRECTION('center_axis',(1.,0.,0.));
#306=DIRECTION('ref_axis',(0.,1.,0.));
#307=DIRECTION('center_axis',(1.,0.,0.));
#308=DIRECTION('ref_axis',(0.,0.,-1.));
#309=DIRECTION('center_axis',(1.,0.,0.));
#310=DIRECTION('ref_axis',(0.,0.,-1.));
#311=CARTESIAN_POINT('',(0.,0.,0.));
#312=CARTESIAN_POINT('Origin',(0.1305,0.649519052838329,0.374999999999999));
#313=CARTESIAN_POINT('',(0.,0.610980922369922,0.352749999999999));
#314=CARTESIAN_POINT('Origin',(0.,0.649519052838329,0.374999999999999));
#315=CARTESIAN_POINT('',(0.0625,0.610980922369922,0.352749999999999));
#316=CARTESIAN_POINT('',(0.1305,0.610980922369922,0.352749999999999));
#317=CARTESIAN_POINT('Origin',(0.0625,0.649519052838329,0.374999999999999));
#318=CARTESIAN_POINT('Origin',(0.1305,0.649519052838329,-0.375));
#319=CARTESIAN_POINT('',(0.,0.610980922369921,-0.35275));
#320=CARTESIAN_POINT('Origin',(0.,0.649519052838329,-0.375));
#321=CARTESIAN_POINT('',(0.0625,0.610980922369921,-0.35275));
#322=CARTESIAN_POINT('',(0.1305,0.610980922369921,-0.35275));
#323=CARTESIAN_POINT('Origin',(0.0625,0.649519052838329,-0.375));
#324=CARTESIAN_POINT('Origin',(0.1305,-1.31128703695885E-16,-0.75));
#325=CARTESIAN_POINT('',(0.,-1.17483481458686E-16,-0.7055));
#326=CARTESIAN_POINT('Origin',(0.,-1.31128703695885E-16,-0.75));
#327=CARTESIAN_POINT('',(0.0625,-1.17483481458686E-16,-0.7055));
#328=CARTESIAN_POINT('',(0.1305,-1.17483481458686E-16,-0.7055));
#329=CARTESIAN_POINT('Origin',(0.0625,-1.31128703695885E-16,-0.75));
#330=CARTESIAN_POINT('Origin',(0.1305,-0.649519052838329,-0.375));
#331=CARTESIAN_POINT('',(0.,-0.610980922369922,-0.35275));
#332=CARTESIAN_POINT('Origin',(0.,-0.649519052838329,-0.375));
#333=CARTESIAN_POINT('',(0.0625,-0.610980922369922,-0.35275));
#334=CARTESIAN_POINT('',(0.1305,-0.610980922369922,-0.35275));
#335=CARTESIAN_POINT('Origin',(0.0625,-0.649519052838329,-0.375));
#336=CARTESIAN_POINT('Origin',(0.1305,-0.649519052838329,0.375));
#337=CARTESIAN_POINT('',(0.,-0.610980922369921,0.35275));
#338=CARTESIAN_POINT('Origin',(0.,-0.649519052838329,0.375));
#339=CARTESIAN_POINT('',(0.0625,-0.610980922369921,0.35275));
#340=CARTESIAN_POINT('',(0.1305,-0.610980922369921,0.35275));
#341=CARTESIAN_POINT('Origin',(0.0625,-0.649519052838329,0.375));
#342=CARTESIAN_POINT('Origin',(0.1305,0.,0.75));
#343=CARTESIAN_POINT('',(0.,-5.44967825620572E-18,0.7055));
#344=CARTESIAN_POINT('Origin',(0.,0.,0.75));
#345=CARTESIAN_POINT('',(0.0625,-5.44967825620572E-18,0.7055));
#346=CARTESIAN_POINT('',(0.1305,-5.44967825620572E-18,0.7055));
#347=CARTESIAN_POINT('Origin',(0.0625,0.,0.75));
#348=CARTESIAN_POINT('Origin',(0.0625,0.,0.));
#349=CARTESIAN_POINT('',(0.0625,7.23216613669697E-18,0.0590551181102362));
#350=CARTESIAN_POINT('Origin',(0.0625,0.,0.));
#351=CARTESIAN_POINT('',(-1.09273919746571E-17,2.89736590462406E-17,0.236587880411015));
#352=CARTESIAN_POINT('',(0.0625,7.23216613669697E-18,0.0590551181102362));
#353=CARTESIAN_POINT('Origin',(0.,0.,0.));
#354=CARTESIAN_POINT('Origin',(0.,0.,0.));
#355=CARTESIAN_POINT('',(0.0625,-1.,-1.22464679914735E-16));
#356=CARTESIAN_POINT('Origin',(0.0625,0.,0.));
#357=CARTESIAN_POINT('',(0.,-1.,-1.22464679914735E-16));
#358=CARTESIAN_POINT('',(0.,-1.,-1.22464679914735E-16));
#359=CARTESIAN_POINT('Origin',(0.,0.,0.));
#360=CARTESIAN_POINT('Origin',(0.0625,0.,0.));
#361=CARTESIAN_POINT('Origin',(0.,0.,0.));
#362=UNCERTAINTY_MEASURE_WITH_UNIT(LENGTH_MEASURE(0.000393700787401575),
#367,'DISTANCE_ACCURACY_VALUE',
'Maximum model space distance between geometric entities at asserted c
onnectivities');
#363=UNCERTAINTY_MEASURE_WITH_UNIT(LENGTH_MEASURE(0.000393700787401575),
#367,'DISTANCE_ACCURACY_VALUE',
'Maximum model space distance between geometric entities at asserted c
onnectivities');
#364=(
GEOMETRIC_REPRESENTATION_CONTEXT(3)
GLOBAL_UNCERTAINTY_ASSIGNED_CONTEXT((#362))
GLOBAL_UNIT_ASSIGNED_CONTEXT((#367,#371,#372))
REPRESENTATION_CONTEXT('','3D')
);
#365=(
GEOMETRIC_REPRESENTATION_CONTEXT(3)
GLOBAL_UNCERTAINTY_ASSIGNED_CONTEXT((#363))
GLOBAL_UNIT_ASSIGNED_CONTEXT((#367,#371,#372))
REPRESENTATION_CONTEXT('','3D')
);
#366=DIMENSIONAL_EXPONENTS(1.,0.,0.,0.,0.,0.,0.);
#367=(
CONVERSION_BASED_UNIT('inch',#370)
LENGTH_UNIT()
NAMED_UNIT(#366)
);
#368=(
LENGTH_UNIT()
NAMED_UNIT(*)
SI_UNIT(.MILLI.,.METRE.)
);
#369=(
LENGTH_UNIT()
NAMED_UNIT(*)
SI_UNIT(.CENTI.,.METRE.)
);
#370=LENGTH_MEASURE_WITH_UNIT(LENGTH_MEASURE(25.4),#368);
#371=(
NAMED_UNIT(*)
PLANE_ANGLE_UNIT()
SI_UNIT($,.RADIAN.)
);
#372=(
NAMED_UNIT(*)
SI_UNIT($,.STERADIAN.)
SOLID_ANGLE_UNIT()
);
#373=SHAPE_DEFINITION_REPRESENTATION(#374,#375);
#374=PRODUCT_DEFINITION_SHAPE('',$,#377);
#375=SHAPE_REPRESENTATION('',(#222),#364);
#376=PRODUCT_DEFINITION_CONTEXT('part definition',#381,'design');
#377=PRODUCT_DEFINITION('3mmKnifeEdgeDisk','3mmKnifeEdgeDisk',#378,#376);
#378=PRODUCT_DEFINITION_FORMATION('',$,#383);
#379=PRODUCT_RELATED_PRODUCT_CATEGORY('3mmKnifeEdgeDisk',
'3mmKnifeEdgeDisk',(#383));
#380=APPLICATION_PROTOCOL_DEFINITION('international standard',
'automotive_design',2009,#381);
#381=APPLICATION_CONTEXT(
'Core Data for Automotive Mechanical Design Process');
#382=PRODUCT_CONTEXT('part definition',#381,'mechanical');
#383=PRODUCT('3mmKnifeEdgeDisk','3mmKnifeEdgeDisk',$,(#382));
#384=PRESENTATION_STYLE_ASSIGNMENT((#385));
#385=SURFACE_STYLE_USAGE(.BOTH.,#388);
#386=SURFACE_STYLE_RENDERING_WITH_PROPERTIES($,#392,(#387));
#387=SURFACE_STYLE_TRANSPARENT(0.);
#388=SURFACE_SIDE_STYLE('',(#389,#386));
#389=SURFACE_STYLE_FILL_AREA(#390);
#390=FILL_AREA_STYLE('',(#391));
#391=FILL_AREA_STYLE_COLOUR('',#392);
#392=COLOUR_RGB('',0.745098039215686,0.737254901960784,0.729411764705882);
ENDSEC;
END-ISO-10303-21;
