ISO-10303-21;
HEADER;
FILE_DESCRIPTION (( 'STEP AP214' ),
    '1' );
FILE_NAME ('MC6020D-AA.STEP',
    '2019-08-27T07:11:01',
    ( '' ),
    ( '' ),
    'SwSTEP 2.0',
    'SolidWorks 2017',
    '' );
FILE_SCHEMA (( 'AUTOMOTIVE_DESIGN' ));
ENDSEC;

DATA;
#1 = CARTESIAN_POINT ( 'NONE',  ( -1.041400000000000100, 1.275347176632053500E-016, 0.0000000000000000000 ) ) ;
#2 = CARTESIAN_POINT ( 'NONE',  ( -0.8382000000000000600, 1.026498947045311600E-016, 0.0000000000000000000 ) ) ;
#3 = AXIS2_PLACEMENT_3D ( 'NONE', #770, #190, #200 ) ;
#4 = FACE_OUTER_BOUND ( 'NONE', #363, .T. ) ;
#5 = CIRCLE ( 'NONE', #59, 0.5714999999999989000 ) ;
#6 = EDGE_LOOP ( 'NONE', ( #442, #53, #253, #835 ) ) ;
#7 = DIRECTION ( 'NONE',  ( -0.0000000000000000000, -0.0000000000000000000, 1.000000000000000000 ) ) ;
#8 = EDGE_LOOP ( 'NONE', ( #790, #718, #283, #340, #316, #409 ) ) ;
#9 = ORIENTED_EDGE ( 'NONE', *, *, #47, .F. ) ;
#10 = CARTESIAN_POINT ( 'NONE',  ( 0.5414020407652379000, -0.1887821147070743700, -1.564560669975255900 ) ) ;
#11 = ADVANCED_FACE ( 'NONE', ( #215 ), #677, .T. ) ;
#12 = AXIS2_PLACEMENT_3D ( 'NONE', #771, #526, #592 ) ;
#13 = CARTESIAN_POINT ( 'NONE',  ( 1.042400000000000000, 0.0000000000000000000, -0.8762999999999997500 ) ) ;
#14 = DIRECTION ( 'NONE',  ( -0.0000000000000000000, -0.0000000000000000000, -1.000000000000000000 ) ) ;
#15 = ADVANCED_FACE ( 'NONE', ( #381 ), #468, .T. ) ;
#16 = CARTESIAN_POINT ( 'NONE',  ( 0.5714999999999991200, -8.442951588610513200E-018, -0.8762999999999997500 ) ) ;
#17 = CIRCLE ( 'NONE', #193, 1.041400000000000100 ) ;
#18 = STYLED_ITEM ( 'NONE', ( #423 ), #74 ) ;
#19 = EDGE_LOOP ( 'NONE', ( #372, #152, #76 ) ) ;
#20 = DIRECTION ( 'NONE',  ( -0.0000000000000000000, -0.0000000000000000000, 1.000000000000000000 ) ) ;
#21 = ORIENTED_EDGE ( 'NONE', *, *, #636, .T. ) ;
#22 = CARTESIAN_POINT ( 'NONE',  ( 0.5422273638958481400, -0.1951425565053707700, -0.9186021971975388800 ) ) ;
#23 = EDGE_CURVE ( 'NONE', #816, #56, #822, .T. ) ;
#24 = DIRECTION ( 'NONE',  ( 1.000000000000000000, 0.0000000000000000000, 0.0000000000000000000 ) ) ;
#25 = CARTESIAN_POINT ( 'NONE',  ( 0.4991099999999994400, 0.0000000000000000000, 0.0000000000000000000 ) ) ;
#26 = FILL_AREA_STYLE_COLOUR ( '', #649 ) ;
#27 = LINE ( 'NONE', #760, #622 ) ;
#28 = EDGE_CURVE ( 'NONE', #185, #807, #640, .T. ) ;
#29 = LINE ( 'NONE', #818, #706 ) ;
#30 = DIRECTION ( 'NONE',  ( 1.000000000000000000, 0.0000000000000000000, 0.0000000000000000000 ) ) ;
#31 = VERTEX_POINT ( 'NONE', #179 ) ;
#32 = ORIENTED_EDGE ( 'NONE', *, *, #791, .T. ) ;
#33 = VERTEX_POINT ( 'NONE', #826 ) ;
#34 = CARTESIAN_POINT ( 'NONE',  ( -0.4991099999999994400, 6.112334639224347600E-017, 0.0000000000000000000 ) ) ;
#35 = ADVANCED_BREP_SHAPE_REPRESENTATION ( 'MC6020D-AA', ( #74, #102 ), #756 ) ;
#36 = AXIS2_PLACEMENT_3D ( 'NONE', #765, #198, #652 ) ;
#37 = FILL_AREA_STYLE ('',( #26 ) ) ;
#38 = DIRECTION ( 'NONE',  ( 1.000000000000000000, 0.0000000000000000000, 0.0000000000000000000 ) ) ;
#39 = PRESENTATION_LAYER_ASSIGNMENT (  '', '', ( #416 ) ) ;
#40 = SURFACE_STYLE_USAGE ( .BOTH. , #504 ) ;
#41 = CIRCLE ( 'NONE', #453, 1.041400000000000100 ) ;
#42 = CARTESIAN_POINT ( 'NONE',  ( 0.5647232762660253600, 0.09914152282762596400, -1.602606890419407100 ) ) ;
#43 = VERTEX_POINT ( 'NONE', #307 ) ;
#44 = VERTEX_POINT ( 'NONE', #311 ) ;
#45 = DIRECTION ( 'NONE',  ( -0.0000000000000000000, -0.0000000000000000000, 1.000000000000000000 ) ) ;
#46 = CARTESIAN_POINT ( 'NONE',  ( 0.0000000000000000000, 0.0000000000000000000, 0.6858000000000000800 ) ) ;
#47 = EDGE_CURVE ( 'NONE', #373, #140, #742, .T. ) ;
#48 = DIRECTION ( 'NONE',  ( 0.0000000000000000000, 0.0000000000000000000, -1.000000000000000000 ) ) ;
#49 = AXIS2_PLACEMENT_3D ( 'NONE', #682, #175, #101 ) ;
#50 = CARTESIAN_POINT ( 'NONE',  ( 0.4735395322617743700, 0.3207861160905980900, -1.431727788144266000 ) ) ;
#51 = CARTESIAN_POINT ( 'NONE',  ( 0.8889999999999999000, 1.088711004441996900E-016, 0.6858000000000000800 ) ) ;
#52 = CYLINDRICAL_SURFACE ( 'NONE', #145, 0.8636000000000000300 ) ;
#53 = ORIENTED_EDGE ( 'NONE', *, *, #691, .F. ) ;
#54 = ORIENTED_EDGE ( 'NONE', *, *, #141, .F. ) ;
#55 = AXIS2_PLACEMENT_3D ( 'NONE', #211, #273, #333 ) ;
#56 = VERTEX_POINT ( 'NONE', #129 ) ;
#57 = CARTESIAN_POINT ( 'NONE',  ( 0.8889999999999999000, 1.088711004441996900E-016, 0.6858000000000000800 ) ) ;
#58 = CARTESIAN_POINT ( 'NONE',  ( -0.8636000000000000300, 1.057604975743654300E-016, 0.0000000000000000000 ) ) ;
#59 = AXIS2_PLACEMENT_3D ( 'NONE', #322, #189, #694 ) ;
#60 = LINE ( 'NONE', #638, #719 ) ;
#61 = CIRCLE ( 'NONE', #653, 0.4991099999999990000 ) ;
#62 = CARTESIAN_POINT ( 'NONE',  ( 0.8019469694125308500, -0.3282018372752478200, -1.052027485266826800 ) ) ;
#63 = VECTOR ( 'NONE', #777, 1000.000000000000000 ) ;
#64 = EDGE_LOOP ( 'NONE', ( #75, #585, #533, #447 ) ) ;
#65 = AXIS2_PLACEMENT_3D ( 'NONE', #786, #405, #536 ) ;
#66 = DIRECTION ( 'NONE',  ( 1.000000000000000000, 0.0000000000000000000, 0.0000000000000000000 ) ) ;
#67 = PRODUCT_CONTEXT ( 'NONE', #630, 'mechanical' ) ;
#68 = DIRECTION ( 'NONE',  ( 0.7071067811865474600, 0.0000000000000000000, 0.7071067811865475700 ) ) ;
#69 = DIRECTION ( 'NONE',  ( 0.0000000000000000000, 0.0000000000000000000, -1.000000000000000000 ) ) ;
#70 = VECTOR ( 'NONE', #635, 1000.000000000000000 ) ;
#71 = ORIENTED_EDGE ( 'NONE', *, *, #701, .F. ) ;
#72 = ORIENTED_EDGE ( 'NONE', *, *, #247, .F. ) ;
#73 = DIRECTION ( 'NONE',  ( 1.000000000000000000, 0.0000000000000000000, 0.0000000000000000000 ) ) ;
#74 = MANIFOLD_SOLID_BREP ( 'Join1', #318 ) ;
#75 = ORIENTED_EDGE ( 'NONE', *, *, #759, .F. ) ;
#76 = ORIENTED_EDGE ( 'NONE', *, *, #523, .T. ) ;
#77 = EDGE_CURVE ( 'NONE', #602, #225, #488, .T. ) ;
#78 = CARTESIAN_POINT ( 'NONE',  ( 0.5714999999999993400, 6.998856457127116100E-017, -4.698999999999999800 ) ) ;
#79 = DIRECTION ( 'NONE',  ( 1.000000000000000000, 0.0000000000000000000, 0.0000000000000000000 ) ) ;
#80 = ADVANCED_FACE ( 'NONE', ( #315 ), #611, .T. ) ;
#81 = CARTESIAN_POINT ( 'NONE',  ( 0.4463231213525374300, -0.3576887496789555900, -1.144735935208170100 ) ) ;
#82 = CYLINDRICAL_SURFACE ( 'NONE', #288, 0.8889999999999997900 ) ;
#83 = ADVANCED_FACE ( 'NONE', ( #139 ), #249, .F. ) ;
#84 = EDGE_LOOP ( 'NONE', ( #671, #172, #451, #513 ) ) ;
#85 = MECHANICAL_DESIGN_GEOMETRIC_PRESENTATION_REPRESENTATION (  '', ( #416 ), #223 ) ;
#86 = DIRECTION ( 'NONE',  ( -0.0000000000000000000, -0.0000000000000000000, 1.000000000000000000 ) ) ;
#87 = ORIENTED_EDGE ( 'NONE', *, *, #330, .F. ) ;
#88 = UNCERTAINTY_MEASURE_WITH_UNIT (LENGTH_MEASURE( 1.000000000000000100E-005 ), #376, 'distance_accuracy_value', 'NONE');
#89 = CARTESIAN_POINT ( 'NONE',  ( 0.5254703519795601600, -0.2277996783161954400, -1.537820492382343300 ) ) ;
#90 = EDGE_CURVE ( 'NONE', #492, #43, #304, .T. ) ;
#91 = CARTESIAN_POINT ( 'NONE',  ( 0.7746999999999999400, 9.487338752994543900E-017, -4.902199999999999700 ) ) ;
#92 = CARTESIAN_POINT ( 'NONE',  ( 0.0000000000000000000, 0.0000000000000000000, 0.0000000000000000000 ) ) ;
#93 = FACE_BOUND ( 'NONE', #542, .T. ) ;
#94 = CARTESIAN_POINT ( 'NONE',  ( -0.8636000000000000300, 1.057604975743654300E-016, -0.7873999999999998800 ) ) ;
#95 = ORIENTED_EDGE ( 'NONE', *, *, #226, .T. ) ;
#96 = ORIENTED_EDGE ( 'NONE', *, *, #841, .F. ) ;
#97 = ORIENTED_EDGE ( 'NONE', *, *, #650, .F. ) ;
#98 = CARTESIAN_POINT ( 'NONE',  ( 0.0000000000000000000, 0.0000000000000000000, 0.0000000000000000000 ) ) ;
#99 = AXIS2_PLACEMENT_3D ( 'NONE', #538, #270, #600 ) ;
#100 =( NAMED_UNIT ( * ) SI_UNIT ( $, .STERADIAN. ) SOLID_ANGLE_UNIT ( ) );
#101 = DIRECTION ( 'NONE',  ( 1.000000000000000000, 0.0000000000000000000, 0.0000000000000000000 ) ) ;
#102 = AXIS2_PLACEMENT_3D ( 'NONE', #751, #262, #780 ) ;
#103 = CARTESIAN_POINT ( 'NONE',  ( 0.0000000000000000000, 0.0000000000000000000, -0.7873999999999998800 ) ) ;
#104 = DIRECTION ( 'NONE',  ( -1.000000000000000000, 0.0000000000000000000, 0.0000000000000000000 ) ) ;
#105 = FACE_OUTER_BOUND ( 'NONE', #605, .T. ) ;
#106 = CYLINDRICAL_SURFACE ( 'NONE', #353, 0.4991099999999994400 ) ;
#107 = ORIENTED_EDGE ( 'NONE', *, *, #386, .F. ) ;
#108 = CARTESIAN_POINT ( 'NONE',  ( 0.8636000000000000300, 0.0000000000000000000, 0.0000000000000000000 ) ) ;
#109 = DIRECTION ( 'NONE',  ( -0.8660254037844377100, 0.0000000000000000000, -0.5000000000000017800 ) ) ;
#110 =( NAMED_UNIT ( * ) PLANE_ANGLE_UNIT ( ) SI_UNIT ( $, .RADIAN. ) );
#111 = CARTESIAN_POINT ( 'NONE',  ( 0.4369581862030120800, 0.3683473868217052000, -1.195544215211024900 ) ) ;
#112 = EDGE_CURVE ( 'NONE', #225, #602, #290, .T. ) ;
#113 = DIRECTION ( 'NONE',  ( -0.0000000000000000000, -0.0000000000000000000, 1.000000000000000000 ) ) ;
#114 = FACE_OUTER_BOUND ( 'NONE', #117, .T. ) ;
#115 = DIRECTION ( 'NONE',  ( 1.000000000000000000, 0.0000000000000000000, 0.0000000000000000000 ) ) ;
#116 = VERTEX_POINT ( 'NONE', #324 ) ;
#117 = EDGE_LOOP ( 'NONE', ( #672, #658 ) ) ;
#118 = ORIENTED_EDGE ( 'NONE', *, *, #112, .T. ) ;
#119 = DIRECTION ( 'NONE',  ( -1.000000000000000000, 0.0000000000000000000, 0.0000000000000000000 ) ) ;
#120 = CARTESIAN_POINT ( 'NONE',  ( 0.5714999999999989000, 6.998856457127109900E-017, -0.8381999999999998300 ) ) ;
#121 = DIRECTION ( 'NONE',  ( -0.0000000000000000000, -0.0000000000000000000, 1.000000000000000000 ) ) ;
#122 = AXIS2_PLACEMENT_3D ( 'NONE', #296, #297, #436 ) ;
#123 = CARTESIAN_POINT ( 'NONE',  ( 0.0000000000000000000, 0.0000000000000000000, -1.904999999999999600 ) ) ;
#124 = VECTOR ( 'NONE', #448, 1000.000000000000100 ) ;
#125 = VECTOR ( 'NONE', #336, 1000.000000000000000 ) ;
#126 = FACE_OUTER_BOUND ( 'NONE', #64, .T. ) ;
#127 = DIRECTION ( 'NONE',  ( -0.0000000000000000000, -0.0000000000000000000, 1.000000000000000000 ) ) ;
#128 = ORIENTED_EDGE ( 'NONE', *, *, #334, .F. ) ;
#129 = CARTESIAN_POINT ( 'NONE',  ( -0.5714999999999989000, 0.0000000000000000000, -0.8381999999999998300 ) ) ;
#130 = DIRECTION ( 'NONE',  ( 1.000000000000000000, 0.0000000000000000000, 0.0000000000000000000 ) ) ;
#131 = CARTESIAN_POINT ( 'NONE',  ( 0.7811585230306038500, 0.3682340657745789600, -1.146902710115109200 ) ) ;
#132 = EDGE_CURVE ( 'NONE', #816, #31, #805, .T. ) ;
#133 = DIRECTION ( 'NONE',  ( 1.000000000000000000, 0.0000000000000000000, 0.0000000000000000000 ) ) ;
#134 = AXIS2_PLACEMENT_3D ( 'NONE', #235, #748, #377 ) ;
#135 = APPLICATION_CONTEXT ( 'automotive_design' ) ;
#136 = CARTESIAN_POINT ( 'NONE',  ( 0.0000000000000000000, 0.0000000000000000000, -4.902199999999999700 ) ) ;
#137 = CONICAL_SURFACE ( 'NONE', #817, 0.8889999999999999000, 0.7853981633974482800 ) ;
#138 = DIRECTION ( 'NONE',  ( -1.000000000000000000, 0.0000000000000000000, 0.0000000000000000000 ) ) ;
#139 = FACE_OUTER_BOUND ( 'NONE', #6, .T. ) ;
#140 = VERTEX_POINT ( 'NONE', #51 ) ;
#141 = EDGE_CURVE ( 'NONE', #757, #142, #693, .T. ) ;
#142 = VERTEX_POINT ( 'NONE', #452 ) ;
#143 = DIRECTION ( 'NONE',  ( -0.0000000000000000000, -0.0000000000000000000, 1.000000000000000000 ) ) ;
#144 = CARTESIAN_POINT ( 'NONE',  ( 0.0000000000000000000, 0.0000000000000000000, -4.698999999999999800 ) ) ;
#145 = AXIS2_PLACEMENT_3D ( 'NONE', #606, #779, #130 ) ;
#146 = CARTESIAN_POINT ( 'NONE',  ( 0.8382000000000000600, 0.0000000000000000000, -4.902199999999999700 ) ) ;
#147 = FACE_OUTER_BOUND ( 'NONE', #84, .T. ) ;
#148 = ADVANCED_FACE ( 'NONE', ( #623 ), #106, .T. ) ;
#149 = LINE ( 'NONE', #404, #631 ) ;
#150 = DIRECTION ( 'NONE',  ( -0.0000000000000000000, -0.0000000000000000000, -1.000000000000000000 ) ) ;
#151 = DIRECTION ( 'NONE',  ( -1.000000000000000000, 0.0000000000000000000, 0.0000000000000000000 ) ) ;
#152 = ORIENTED_EDGE ( 'NONE', *, *, #132, .T. ) ;
#153 = EDGE_CURVE ( 'NONE', #602, #807, #733, .T. ) ;
#154 = ADVANCED_FACE ( 'NONE', ( #126 ), #458, .T. ) ;
#155 = AXIS2_PLACEMENT_3D ( 'NONE', #596, #275, #79 ) ;
#156 = CARTESIAN_POINT ( 'NONE',  ( 0.4369219066526827100, -0.3683904335363980500, -1.344129876738395300 ) ) ;
#157 = DIRECTION ( 'NONE',  ( 1.000000000000000000, 0.0000000000000000000, 0.0000000000000000000 ) ) ;
#158 = EDGE_CURVE ( 'NONE', #410, #225, #583, .T. ) ;
#159 = DIRECTION ( 'NONE',  ( 1.000000000000000000, 0.0000000000000000000, 0.0000000000000000000 ) ) ;
#160 = AXIS2_PLACEMENT_3D ( 'NONE', #534, #530, #138 ) ;
#161 = CARTESIAN_POINT ( 'NONE',  ( 0.0000000000000000000, 0.0000000000000000000, -0.7873999999999998800 ) ) ;
#162 = CARTESIAN_POINT ( 'NONE',  ( 0.0000000000000000000, 0.0000000000000000000, -1.930399999999999700 ) ) ;
#163 = ORIENTED_EDGE ( 'NONE', *, *, #559, .F. ) ;
#164 = ORIENTED_EDGE ( 'NONE', *, *, #153, .F. ) ;
#165 = DIRECTION ( 'NONE',  ( -0.0000000000000000000, -0.0000000000000000000, -1.000000000000000000 ) ) ;
#166 = ORIENTED_EDGE ( 'NONE', *, *, #721, .F. ) ;
#167 = EDGE_CURVE ( 'NONE', #768, #511, #345, .T. ) ;
#168 = DIRECTION ( 'NONE',  ( -0.0000000000000000000, -0.0000000000000000000, 1.000000000000000000 ) ) ;
#169 = LINE ( 'NONE', #836, #519 ) ;
#170 = AXIS2_PLACEMENT_3D ( 'NONE', #621, #497, #237 ) ;
#171 = CIRCLE ( 'NONE', #55, 0.4991100000000005000 ) ;
#172 = ORIENTED_EDGE ( 'NONE', *, *, #334, .T. ) ;
#173 = VERTEX_POINT ( 'NONE', #475 ) ;
#174 = VERTEX_POINT ( 'NONE', #842 ) ;
#175 = DIRECTION ( 'NONE',  ( -0.0000000000000000000, -0.0000000000000000000, 1.000000000000000000 ) ) ;
#176 = CARTESIAN_POINT ( 'NONE',  ( -0.5714999999999989000, 0.0000000000000000000, -0.8381999999999998300 ) ) ;
#177 = AXIS2_PLACEMENT_3D ( 'NONE', #711, #518, #459 ) ;
#178 = DIRECTION ( 'NONE',  ( -0.0000000000000000000, -0.0000000000000000000, 1.000000000000000000 ) ) ;
#179 = CARTESIAN_POINT ( 'NONE',  ( 0.5714999999999989000, 6.998856457127111200E-017, -0.8381999999999998300 ) ) ;
#180 = AXIS2_PLACEMENT_3D ( 'NONE', #550, #422, #157 ) ;
#181 = DIRECTION ( 'NONE',  ( -1.000000000000000000, 0.0000000000000000000, 0.0000000000000000000 ) ) ;
#182 = EDGE_CURVE ( 'NONE', #587, #44, #499, .T. ) ;
#183 = FACE_OUTER_BOUND ( 'NONE', #722, .T. ) ;
#184 = EDGE_LOOP ( 'NONE', ( #501, #654 ) ) ;
#185 = VERTEX_POINT ( 'NONE', #471 ) ;
#186 = VERTEX_POINT ( 'NONE', #78 ) ;
#187 = DIRECTION ( 'NONE',  ( 0.0000000000000000000, 0.0000000000000000000, -1.000000000000000000 ) ) ;
#188 = CARTESIAN_POINT ( 'NONE',  ( 0.8447490083622032400, -0.1929624331621700700, -0.9166272590448386600 ) ) ;
#189 = DIRECTION ( 'NONE',  ( -0.0000000000000000000, -0.0000000000000000000, -1.000000000000000000 ) ) ;
#190 = DIRECTION ( 'NONE',  ( -0.0000000000000000000, -0.0000000000000000000, 1.000000000000000000 ) ) ;
#191 = LINE ( 'NONE', #664, #562 ) ;
#192 = FACE_OUTER_BOUND ( 'NONE', #461, .T. ) ;
#193 = AXIS2_PLACEMENT_3D ( 'NONE', #161, #557, #415 ) ;
#194 = DIRECTION ( 'NONE',  ( -0.0000000000000000000, -0.0000000000000000000, 1.000000000000000000 ) ) ;
#195 = VERTEX_POINT ( 'NONE', #661 ) ;
#196 = ORIENTED_EDGE ( 'NONE', *, *, #352, .F. ) ;
#197 = ORIENTED_EDGE ( 'NONE', *, *, #167, .T. ) ;
#198 = DIRECTION ( 'NONE',  ( -1.000000000000000000, 0.0000000000000000000, 0.0000000000000000000 ) ) ;
#199 = DIRECTION ( 'NONE',  ( 1.000000000000000000, 0.0000000000000000000, 0.0000000000000000000 ) ) ;
#200 = DIRECTION ( 'NONE',  ( 1.000000000000000000, 0.0000000000000000000, 0.0000000000000000000 ) ) ;
#201 = DIRECTION ( 'NONE',  ( -0.0000000000000000000, -0.0000000000000000000, 1.000000000000000000 ) ) ;
#202 = LINE ( 'NONE', #25, #529 ) ;
#203 = CARTESIAN_POINT ( 'NONE',  ( 0.8635999999999999200, 0.09861341485158475800, -0.8762999999999998600 ) ) ;
#204 = EDGE_LOOP ( 'NONE', ( #641, #565 ) ) ;
#205 = AXIS2_PLACEMENT_3D ( 'NONE', #674, #801, #362 ) ;
#206 = ORIENTED_EDGE ( 'NONE', *, *, #759, .T. ) ;
#207 = DIRECTION ( 'NONE',  ( -0.0000000000000000000, -0.0000000000000000000, 1.000000000000000000 ) ) ;
#208 = EDGE_CURVE ( 'NONE', #391, #186, #507, .T. ) ;
#209 = DIRECTION ( 'NONE',  ( -0.0000000000000000000, -0.0000000000000000000, 1.000000000000000000 ) ) ;
#210 = FACE_BOUND ( 'NONE', #723, .T. ) ;
#211 = CARTESIAN_POINT ( 'NONE',  ( 0.0000000000000000000, -1.707618421664669500E-015, 8.568690000000001900 ) ) ;
#212 = CIRCLE ( 'NONE', #276, 0.4991099999999998900 ) ;
#213 = ORIENTED_EDGE ( 'NONE', *, *, #440, .T. ) ;
#214 = ORIENTED_EDGE ( 'NONE', *, *, #395, .F. ) ;
#215 = FACE_OUTER_BOUND ( 'NONE', #268, .T. ) ;
#216 = ADVANCED_FACE ( 'NONE', ( #563 ), #478, .T. ) ;
#217 = DIRECTION ( 'NONE',  ( -0.0000000000000000000, -0.0000000000000000000, -1.000000000000000000 ) ) ;
#218 = ADVANCED_FACE ( 'NONE', ( #183 ), #755, .T. ) ;
#219 =( GEOMETRIC_REPRESENTATION_CONTEXT ( 3 ) GLOBAL_UNCERTAINTY_ASSIGNED_CONTEXT ( ( #750 ) ) GLOBAL_UNIT_ASSIGNED_CONTEXT ( ( #329, #580, #833 ) ) REPRESENTATION_CONTEXT ( 'NONE', 'WORKASPACE' ) );
#220 = CARTESIAN_POINT ( 'NONE',  ( 0.5647263238510315000, -0.09919191362071484700, -1.602614638578578700 ) ) ;
#221 = CIRCLE ( 'NONE', #180, 0.8382000000000000600 ) ;
#222 = CYLINDRICAL_SURFACE ( 'NONE', #551, 1.041400000000000100 ) ;
#223 =( GEOMETRIC_REPRESENTATION_CONTEXT ( 3 ) GLOBAL_UNCERTAINTY_ASSIGNED_CONTEXT ( ( #265 ) ) GLOBAL_UNIT_ASSIGNED_CONTEXT ( ( #495, #369, #100 ) ) REPRESENTATION_CONTEXT ( 'NONE', 'WORKASPACE' ) );
#224 = DIRECTION ( 'NONE',  ( -0.0000000000000000000, -0.0000000000000000000, 1.000000000000000000 ) ) ;
#225 = VERTEX_POINT ( 'NONE', #657 ) ;
#226 = EDGE_CURVE ( 'NONE', #757, #33, #796, .T. ) ;
#227 = AXIS2_PLACEMENT_3D ( 'NONE', #647, #127, #199 ) ;
#228 = CARTESIAN_POINT ( 'NONE',  ( 1.041400000000000100, 0.0000000000000000000, -0.7873999999999998800 ) ) ;
#229 = AXIS2_PLACEMENT_3D ( 'NONE', #535, #346, #848 ) ;
#230 = DIRECTION ( 'NONE',  ( -0.0000000000000000000, -0.0000000000000000000, 1.000000000000000000 ) ) ;
#231 = CYLINDRICAL_SURFACE ( 'NONE', #844, 0.5714999999999991200 ) ;
#232 = CONICAL_SURFACE ( 'NONE', #466, 0.8381999999999999500, 0.7853981633974482800 ) ;
#233 = ORIENTED_EDGE ( 'NONE', *, *, #247, .T. ) ;
#234 = ORIENTED_EDGE ( 'NONE', *, *, #650, .T. ) ;
#235 = CARTESIAN_POINT ( 'NONE',  ( 0.0000000000000000000, 0.0000000000000000000, -1.930399999999999700 ) ) ;
#236 = EDGE_LOOP ( 'NONE', ( #543, #375 ) ) ;
#237 = DIRECTION ( 'NONE',  ( 1.000000000000000000, 0.0000000000000000000, 0.0000000000000000000 ) ) ;
#238 = PRODUCT_DEFINITION ( 'UNKNOWN', '', #251, #568 ) ;
#239 = DIRECTION ( 'NONE',  ( 1.000000000000000000, 0.0000000000000000000, 0.0000000000000000000 ) ) ;
#240 = EDGE_CURVE ( 'NONE', #250, #472, #832, .T. ) ;
#241 = CYLINDRICAL_SURFACE ( 'NONE', #727, 0.8382000000000000600 ) ;
#242 = DIRECTION ( 'NONE',  ( -0.0000000000000000000, -0.0000000000000000000, 1.000000000000000000 ) ) ;
#243 = CIRCLE ( 'NONE', #717, 0.5714999999999989000 ) ;
#244 = DIRECTION ( 'NONE',  ( 1.000000000000000000, 0.0000000000000000000, 0.0000000000000000000 ) ) ;
#245 = ORIENTED_EDGE ( 'NONE', *, *, #509, .T. ) ;
#246 = CARTESIAN_POINT ( 'NONE',  ( 0.5421502599084566700, 0.1953693397178369300, -0.9187075626369041200 ) ) ;
#247 = EDGE_CURVE ( 'NONE', #412, #43, #171, .T. ) ;
#248 = EDGE_CURVE ( 'NONE', #282, #410, #149, .T. ) ;
#249 = CYLINDRICAL_SURFACE ( 'NONE', #36, 0.3683000000000000200 ) ;
#250 = VERTEX_POINT ( 'NONE', #666 ) ;
#251 = PRODUCT_DEFINITION_FORMATION_WITH_SPECIFIED_SOURCE ( 'ANY', '', #435, .NOT_KNOWN. ) ;
#252 = ORIENTED_EDGE ( 'NONE', *, *, #248, .F. ) ;
#253 = ORIENTED_EDGE ( 'NONE', *, *, #330, .T. ) ;
#254 = PLANE ( 'NONE',  #12 ) ;
#255 = AXIS2_PLACEMENT_3D ( 'NONE', #162, #356, #24 ) ;
#256 = CARTESIAN_POINT ( 'NONE',  ( 0.0000000000000000000, -1.707618421664669500E-015, 8.568690000000001900 ) ) ;
#257 = CIRCLE ( 'NONE', #597, 0.8889999999999999000 ) ;
#258 = CARTESIAN_POINT ( 'NONE',  ( 0.8019177957846495000, -0.3282690669546551300, -1.437059722036889500 ) ) ;
#259 = ORIENTED_EDGE ( 'NONE', *, *, #476, .F. ) ;
#260 = ORIENTED_EDGE ( 'NONE', *, *, #287, .F. ) ;
#261 = CARTESIAN_POINT ( 'NONE',  ( 0.8445619826320364100, 0.1935640840503010700, -0.9172100957801563300 ) ) ;
#262 = DIRECTION ( 'NONE',  ( 0.0000000000000000000, 0.0000000000000000000, 1.000000000000000000 ) ) ;
#263 = CARTESIAN_POINT ( 'NONE',  ( 0.8021504071206722000, 0.3276255145969748100, -1.437870497537933100 ) ) ;
#264 = CARTESIAN_POINT ( 'NONE',  ( -0.8889999999999999000, 0.0000000000000000000, 0.6858000000000000800 ) ) ;
#265 = UNCERTAINTY_MEASURE_WITH_UNIT (LENGTH_MEASURE( 1.000000000000000100E-005 ), #495, 'distance_accuracy_value', 'NONE');
#266 = FACE_BOUND ( 'NONE', #593, .T. ) ;
#267 = EDGE_CURVE ( 'NONE', #44, #554, #812, .T. ) ;
#268 = EDGE_LOOP ( 'NONE', ( #567, #575, #166, #798, #566 ) ) ;
#269 = ORIENTED_EDGE ( 'NONE', *, *, #153, .T. ) ;
#270 = DIRECTION ( 'NONE',  ( -1.000000000000000000, 0.0000000000000000000, 0.0000000000000000000 ) ) ;
#271 = ORIENTED_EDGE ( 'NONE', *, *, #298, .T. ) ;
#272 = ORIENTED_EDGE ( 'NONE', *, *, #240, .T. ) ;
#273 = DIRECTION ( 'NONE',  ( 1.000000000000000000, 0.0000000000000000000, 0.0000000000000000000 ) ) ;
#274 = ADVANCED_FACE ( 'NONE', ( #669 ), #52, .T. ) ;
#275 = DIRECTION ( 'NONE',  ( -0.0000000000000000000, -0.0000000000000000000, 1.000000000000000000 ) ) ;
#276 = AXIS2_PLACEMENT_3D ( 'NONE', #689, #168, #683 ) ;
#277 = DIRECTION ( 'NONE',  ( -0.0000000000000000000, -0.0000000000000000000, -1.000000000000000000 ) ) ;
#278 = ADVANCED_FACE ( 'NONE', ( #105 ), #82, .T. ) ;
#279 = CIRCLE ( 'NONE', #830, 0.4991099999999998900 ) ;
#280 = ADVANCED_FACE ( 'NONE', ( #773 ), #313, .F. ) ;
#281 = LINE ( 'NONE', #286, #720 ) ;
#282 = VERTEX_POINT ( 'NONE', #146 ) ;
#283 = ORIENTED_EDGE ( 'NONE', *, *, #359, .T. ) ;
#284 = CARTESIAN_POINT ( 'NONE',  ( 0.5714999999999991200, 6.999300993824760300E-017, -1.612899999999999800 ) ) ;
#285 = ADVANCED_FACE ( 'NONE', ( #487 ), #520, .F. ) ;
#286 = CARTESIAN_POINT ( 'NONE',  ( 0.8636000000000000300, 0.0000000000000000000, 0.0000000000000000000 ) ) ;
#287 = EDGE_CURVE ( 'NONE', #613, #602, #845, .T. ) ;
#288 = AXIS2_PLACEMENT_3D ( 'NONE', #413, #403, #133 ) ;
#289 = FACE_OUTER_BOUND ( 'NONE', #698, .T. ) ;
#290 = CIRCLE ( 'NONE', #546, 0.8636000000000000300 ) ;
#291 = CARTESIAN_POINT ( 'NONE',  ( 0.7746999999999999400, 9.487338752994543900E-017, -4.902199999999999700 ) ) ;
#292 = ORIENTED_EDGE ( 'NONE', *, *, #342, .T. ) ;
#293 = ORIENTED_EDGE ( 'NONE', *, *, #167, .F. ) ;
#294 = ORIENTED_EDGE ( 'NONE', *, *, #132, .F. ) ;
#295 = CARTESIAN_POINT ( 'NONE',  ( -0.7746999999999999400, 0.0000000000000000000, -4.902199999999999700 ) ) ;
#296 = CARTESIAN_POINT ( 'NONE',  ( 1.042400000000000000, 0.0000000000000000000, -1.244599999999999700 ) ) ;
#297 = DIRECTION ( 'NONE',  ( -1.000000000000000000, 0.0000000000000000000, 0.0000000000000000000 ) ) ;
#298 = EDGE_CURVE ( 'NONE', #587, #502, #17, .T. ) ;
#299 = AXIS2_PLACEMENT_3D ( 'NONE', #827, #119, #769 ) ;
#300 = CARTESIAN_POINT ( 'NONE',  ( 0.0000000000000000000, 0.0000000000000000000, 8.568690000000001900 ) ) ;
#301 = SPHERICAL_SURFACE ( 'NONE', #299, 0.4991099999999997800 ) ;
#302 = VECTOR ( 'NONE', #656, 1000.000000000000000 ) ;
#303 = CARTESIAN_POINT ( 'NONE',  ( 0.5714999999999991200, -8.442951588610513200E-018, -0.8762999999999997500 ) ) ;
#304 = CIRCLE ( 'NONE', #308, 0.4991099999999997800 ) ;
#305 = EDGE_LOOP ( 'NONE', ( #470, #724, #556, #72 ) ) ;
#306 = CARTESIAN_POINT ( 'NONE',  ( 0.0000000000000000000, 0.0000000000000000000, -0.8381999999999998300 ) ) ;
#307 = CARTESIAN_POINT ( 'NONE',  ( 0.0000000000000000000, -1.677056748468547700E-015, 9.067800000000001900 ) ) ;
#308 = AXIS2_PLACEMENT_3D ( 'NONE', #256, #528, #772 ) ;
#309 = PLANE ( 'NONE',  #484 ) ;
#310 = DIRECTION ( 'NONE',  ( -0.0000000000000000000, -0.0000000000000000000, 1.000000000000000000 ) ) ;
#311 = CARTESIAN_POINT ( 'NONE',  ( -1.041400000000000100, 1.275347176632053500E-016, 1.084202172485504400E-016 ) ) ;
#312 = CARTESIAN_POINT ( 'NONE',  ( 0.5415024601003106700, 0.1884582341276860600, -1.564727270200194400 ) ) ;
#313 = CYLINDRICAL_SURFACE ( 'NONE', #160, 0.5714999999999991200 ) ;
#314 = CARTESIAN_POINT ( 'NONE',  ( 0.4460710197599167500, 0.3580097640462836500, -1.145705193863776600 ) ) ;
#315 = FACE_OUTER_BOUND ( 'NONE', #735, .T. ) ;
#316 = ORIENTED_EDGE ( 'NONE', *, *, #705, .T. ) ;
#317 = ORIENTED_EDGE ( 'NONE', *, *, #595, .T. ) ;
#318 = CLOSED_SHELL ( 'NONE', ( #414, #793, #285, #541, #354, #419, #725, #15, #11, #216, #280, #274, #218, #670, #615, #148, #729, #609, #278, #673, #80, #797, #480, #154, #795, #350, #548, #83 ) ) ;
#319 = DIRECTION ( 'NONE',  ( -1.000000000000000000, 0.0000000000000000000, 0.0000000000000000000 ) ) ;
#320 = CARTESIAN_POINT ( 'NONE',  ( 0.8447228775924657800, -0.1930699137289265400, -1.572510556918348800 ) ) ;
#321 = AXIS2_PLACEMENT_3D ( 'NONE', #697, #113, #115 ) ;
#322 = CARTESIAN_POINT ( 'NONE',  ( 0.0000000000000000000, 0.0000000000000000000, -0.8381999999999998300 ) ) ;
#323 = CARTESIAN_POINT ( 'NONE',  ( 0.0000000000000000000, 0.0000000000000000000, 0.0000000000000000000 ) ) ;
#324 = CARTESIAN_POINT ( 'NONE',  ( -0.4991099999999990000, 6.112334639224345100E-017, 8.568690000000001900 ) ) ;
#325 = VECTOR ( 'NONE', #634, 1000.000000000000000 ) ;
#326 = CIRCLE ( 'NONE', #205, 0.8889999999999997900 ) ;
#327 = ORIENTED_EDGE ( 'NONE', *, *, #208, .T. ) ;
#328 = ORIENTED_EDGE ( 'NONE', *, *, #559, .T. ) ;
#329 =( LENGTH_UNIT ( ) NAMED_UNIT ( * ) SI_UNIT ( .MILLI., .METRE. ) );
#330 = EDGE_CURVE ( 'NONE', #142, #825, #685, .T. ) ;
#331 = CARTESIAN_POINT ( 'NONE',  ( 0.0000000000000000000, 0.0000000000000000000, 0.0000000000000000000 ) ) ;
#332 = CARTESIAN_POINT ( 'NONE',  ( 0.8446938995365329500, 0.1930698566440610700, -1.572343792449123900 ) ) ;
#333 = DIRECTION ( 'NONE',  ( 0.0000000000000000000, 0.0000000000000000000, -1.000000000000000000 ) ) ;
#334 = EDGE_CURVE ( 'NONE', #186, #511, #651, .T. ) ;
#335 = FACE_OUTER_BOUND ( 'NONE', #338, .T. ) ;
#336 = DIRECTION ( 'NONE',  ( -0.0000000000000000000, -0.0000000000000000000, 1.000000000000000000 ) ) ;
#337 = SURFACE_STYLE_FILL_AREA ( #392 ) ;
#338 = EDGE_LOOP ( 'NONE', ( #260, #788, #532, #707 ) ) ;
#339 = ORIENTED_EDGE ( 'NONE', *, *, #406, .F. ) ;
#340 = ORIENTED_EDGE ( 'NONE', *, *, #739, .T. ) ;
#341 = DIRECTION ( 'NONE',  ( -1.000000000000000000, 0.0000000000000000000, 0.0000000000000000000 ) ) ;
#342 = EDGE_CURVE ( 'NONE', #847, #195, #326, .T. ) ;
#343 = DIRECTION ( 'NONE',  ( -1.000000000000000000, 0.0000000000000000000, -0.0000000000000000000 ) ) ;
#344 = CIRCLE ( 'NONE', #227, 0.7111999999999997200 ) ;
#345 = CIRCLE ( 'NONE', #65, 0.7746999999999999400 ) ;
#346 = DIRECTION ( 'NONE',  ( -0.0000000000000000000, -0.0000000000000000000, 1.000000000000000000 ) ) ;
#347 = ORIENTED_EDGE ( 'NONE', *, *, #287, .T. ) ;
#348 = CARTESIAN_POINT ( 'NONE',  ( 0.4370364235714795900, -0.3682545559533339000, -1.194333942955640500 ) ) ;
#349 = ORIENTED_EDGE ( 'NONE', *, *, #28, .F. ) ;
#350 = ADVANCED_FACE ( 'NONE', ( #192 ), #421, .F. ) ;
#351 = DIRECTION ( 'NONE',  ( -0.0000000000000000000, -0.0000000000000000000, -1.000000000000000000 ) ) ;
#352 = EDGE_CURVE ( 'NONE', #225, #757, #281, .T. ) ;
#353 = AXIS2_PLACEMENT_3D ( 'NONE', #331, #516, #584 ) ;
#354 = ADVANCED_FACE ( 'NONE', ( #370 ), #232, .T. ) ;
#355 = DIRECTION ( 'NONE',  ( -0.7071067811865474600, 8.659560562354931600E-017, 0.7071067811865475700 ) ) ;
#356 = DIRECTION ( 'NONE',  ( -0.0000000000000000000, -0.0000000000000000000, 1.000000000000000000 ) ) ;
#357 = VECTOR ( 'NONE', #608, 1000.000000000000000 ) ;
#358 = ORIENTED_EDGE ( 'NONE', *, *, #352, .T. ) ;
#359 = EDGE_CURVE ( 'NONE', #825, #33, #560, .T. ) ;
#360 = ORIENTED_EDGE ( 'NONE', *, *, #440, .F. ) ;
#361 = AXIS2_PLACEMENT_3D ( 'NONE', #603, #69, #343 ) ;
#362 = DIRECTION ( 'NONE',  ( 1.000000000000000000, 0.0000000000000000000, 0.0000000000000000000 ) ) ;
#363 = EDGE_LOOP ( 'NONE', ( #9, #521, #272, #687 ) ) ;
#364 = CARTESIAN_POINT ( 'NONE',  ( -0.4991099999999998900, 6.112334639224353700E-017, 0.8636000000000001500 ) ) ;
#365 = PLANE ( 'NONE',  #443 ) ;
#366 = AXIS2_PLACEMENT_3D ( 'NONE', #144, #150, #417 ) ;
#367 = DIRECTION ( 'NONE',  ( 1.000000000000000000, 0.0000000000000000000, 0.0000000000000000000 ) ) ;
#368 = CIRCLE ( 'NONE', #366, 0.5714999999999993400 ) ;
#369 =( NAMED_UNIT ( * ) PLANE_ANGLE_UNIT ( ) SI_UNIT ( $, .RADIAN. ) );
#370 = FACE_OUTER_BOUND ( 'NONE', #806, .T. ) ;
#371 = DIRECTION ( 'NONE',  ( -0.0000000000000000000, -0.0000000000000000000, 1.000000000000000000 ) ) ;
#372 = ORIENTED_EDGE ( 'NONE', *, *, #23, .F. ) ;
#373 = VERTEX_POINT ( 'NONE', #477 ) ;
#374 = MECHANICAL_DESIGN_GEOMETRIC_PRESENTATION_REPRESENTATION (  '', ( #18 ), #219 ) ;
#375 = ORIENTED_EDGE ( 'NONE', *, *, #449, .F. ) ;
#376 =( LENGTH_UNIT ( ) NAMED_UNIT ( * ) SI_UNIT ( .MILLI., .METRE. ) );
#377 = DIRECTION ( 'NONE',  ( 1.000000000000000000, 0.0000000000000000000, 0.0000000000000000000 ) ) ;
#378 = CARTESIAN_POINT ( 'NONE',  ( 0.0000000000000000000, 1.041400000000000100, -0.7873999999999998800 ) ) ;
#379 = DIRECTION ( 'NONE',  ( 1.000000000000000000, 0.0000000000000000000, 0.0000000000000000000 ) ) ;
#380 = VECTOR ( 'NONE', #408, 1000.000000000000000 ) ;
#381 = FACE_OUTER_BOUND ( 'NONE', #660, .T. ) ;
#382 = ORIENTED_EDGE ( 'NONE', *, *, #815, .F. ) ;
#383 = CARTESIAN_POINT ( 'NONE',  ( -0.8381999999999999500, 1.042051961394482800E-016, -1.930399999999999700 ) ) ;
#384 = CARTESIAN_POINT ( 'NONE',  ( 0.0000000000000000000, 0.0000000000000000000, 0.0000000000000000000 ) ) ;
#385 = CARTESIAN_POINT ( 'NONE',  ( 1.041400000000000100, 0.0000000000000000000, 1.084202172485504400E-016 ) ) ;
#386 = EDGE_CURVE ( 'NONE', #140, #472, #257, .T. ) ;
#387 = CARTESIAN_POINT ( 'NONE',  ( 0.8635999999999999200, -0.09705790551885226700, -1.612899999999999600 ) ) ;
#388 = FACE_OUTER_BOUND ( 'NONE', #679, .T. ) ;
#389 = VECTOR ( 'NONE', #678, 1000.000000000000100 ) ;
#390 = ORIENTED_EDGE ( 'NONE', *, *, #515, .T. ) ;
#391 = VERTEX_POINT ( 'NONE', #485 ) ;
#392 = FILL_AREA_STYLE ('',( #396 ) ) ;
#393 = AXIS2_PLACEMENT_3D ( 'NONE', #429, #618, #620 ) ;
#394 = DIRECTION ( 'NONE',  ( 1.000000000000000000, 0.0000000000000000000, 0.0000000000000000000 ) ) ;
#395 = EDGE_CURVE ( 'NONE', #460, #174, #212, .T. ) ;
#396 = FILL_AREA_STYLE_COLOUR ( '', #846 ) ;
#397 = CYLINDRICAL_SURFACE ( 'NONE', #229, 0.8889999999999997900 ) ;
#398 = CYLINDRICAL_SURFACE ( 'NONE', #122, 0.3683000000000000200 ) ;
#399 = APPLICATION_PROTOCOL_DEFINITION ( 'draft international standard', 'automotive_design', 1998, #135 ) ;
#400 = VECTOR ( 'NONE', #68, 1000.000000000000000 ) ;
#401 = AXIS2_PLACEMENT_3D ( 'NONE', #681, #14, #426 ) ;
#402 = ORIENTED_EDGE ( 'NONE', *, *, #701, .T. ) ;
#403 = DIRECTION ( 'NONE',  ( -0.0000000000000000000, -0.0000000000000000000, 1.000000000000000000 ) ) ;
#404 = CARTESIAN_POINT ( 'NONE',  ( 0.8382000000000000600, 0.0000000000000000000, 0.0000000000000000000 ) ) ;
#405 = DIRECTION ( 'NONE',  ( -0.0000000000000000000, -0.0000000000000000000, -1.000000000000000000 ) ) ;
#406 = EDGE_CURVE ( 'NONE', #116, #492, #590, .T. ) ;
#407 = LINE ( 'NONE', #434, #599 ) ;
#408 = DIRECTION ( 'NONE',  ( -1.000000000000000000, 0.0000000000000000000, 0.0000000000000000000 ) ) ;
#409 = ORIENTED_EDGE ( 'NONE', *, *, #428, .F. ) ;
#410 = VERTEX_POINT ( 'NONE', #547 ) ;
#411 = ORIENTED_EDGE ( 'NONE', *, *, #739, .F. ) ;
#412 = VERTEX_POINT ( 'NONE', #424 ) ;
#413 = CARTESIAN_POINT ( 'NONE',  ( 0.0000000000000000000, 0.0000000000000000000, 0.0000000000000000000 ) ) ;
#414 = ADVANCED_FACE ( 'NONE', ( #610 ), #398, .F. ) ;
#415 = DIRECTION ( 'NONE',  ( 1.000000000000000000, 0.0000000000000000000, 0.0000000000000000000 ) ) ;
#416 = STYLED_ITEM ( 'NONE', ( #843 ), #35 ) ;
#417 = DIRECTION ( 'NONE',  ( -1.000000000000000000, 0.0000000000000000000, 0.0000000000000000000 ) ) ;
#418 = CIRCLE ( 'NONE', #747, 0.7111999999999997200 ) ;
#419 = ADVANCED_FACE ( 'NONE', ( #439 ), #222, .T. ) ;
#420 = EDGE_CURVE ( 'NONE', #479, #412, #61, .T. ) ;
#421 = CONICAL_SURFACE ( 'NONE', #430, 0.5714999999999989000, 1.047197551196595600 ) ;
#422 = DIRECTION ( 'NONE',  ( -0.0000000000000000000, -0.0000000000000000000, 1.000000000000000000 ) ) ;
#423 = PRESENTATION_STYLE_ASSIGNMENT (( #456 ) ) ;
#424 = CARTESIAN_POINT ( 'NONE',  ( 0.0000000000000000000, 0.4991099999999985500, 8.568690000000001900 ) ) ;
#425 = ORIENTED_EDGE ( 'NONE', *, *, #659, .F. ) ;
#426 = DIRECTION ( 'NONE',  ( -1.000000000000000000, 0.0000000000000000000, 0.0000000000000000000 ) ) ;
#427 = CARTESIAN_POINT ( 'NONE',  ( 0.0000000000000000000, 0.0000000000000000000, -1.930399999999999700 ) ) ;
#428 = EDGE_CURVE ( 'NONE', #56, #391, #29, .T. ) ;
#429 = CARTESIAN_POINT ( 'NONE',  ( 0.0000000000000000000, 0.0000000000000000000, -4.902199999999999700 ) ) ;
#430 = AXIS2_PLACEMENT_3D ( 'NONE', #668, #277, #151 ) ;
#431 = DIRECTION ( 'NONE',  ( -0.0000000000000000000, -0.0000000000000000000, -1.000000000000000000 ) ) ;
#432 = ORIENTED_EDGE ( 'NONE', *, *, #267, .F. ) ;
#433 = ORIENTED_EDGE ( 'NONE', *, *, #158, .F. ) ;
#434 = CARTESIAN_POINT ( 'NONE',  ( 0.8889999999999997900, 0.0000000000000000000, 0.0000000000000000000 ) ) ;
#435 = PRODUCT ( 'MC6020D-AA', 'MC6020D-AA', '', ( #67 ) ) ;
#436 = DIRECTION ( 'NONE',  ( 0.0000000000000000000, 0.0000000000000000000, 1.000000000000000000 ) ) ;
#437 = FACE_OUTER_BOUND ( 'NONE', #204, .T. ) ;
#438 = APPLICATION_PROTOCOL_DEFINITION ( 'draft international standard', 'automotive_design', 1998, #630 ) ;
#439 = FACE_OUTER_BOUND ( 'NONE', #690, .T. ) ;
#440 = EDGE_CURVE ( 'NONE', #807, #185, #573, .T. ) ;
#441 = ORIENTED_EDGE ( 'NONE', *, *, #481, .F. ) ;
#442 = ORIENTED_EDGE ( 'NONE', *, *, #226, .F. ) ;
#443 = AXIS2_PLACEMENT_3D ( 'NONE', #555, #809, #159 ) ;
#444 = CARTESIAN_POINT ( 'NONE',  ( 0.4913757959156263000, 0.2941649800605847200, -1.018117336391225000 ) ) ;
#445 = DIRECTION ( 'NONE',  ( 1.000000000000000000, 0.0000000000000000000, 0.0000000000000000000 ) ) ;
#446 = CONICAL_SURFACE ( 'NONE', #401, 0.7746999999999999400, 0.7853981633974503900 ) ;
#447 = ORIENTED_EDGE ( 'NONE', *, *, #778, .F. ) ;
#448 = DIRECTION ( 'NONE',  ( -0.7071067811865489100, 0.0000000000000000000, -0.7071067811865460200 ) ) ;
#449 = EDGE_CURVE ( 'NONE', #195, #847, #732, .T. ) ;
#450 = ORIENTED_EDGE ( 'NONE', *, *, #141, .T. ) ;
#451 = ORIENTED_EDGE ( 'NONE', *, *, #784, .T. ) ;
#452 = CARTESIAN_POINT ( 'NONE',  ( 0.8636000000000000300, -6.307160789069575200E-018, -0.8762999999999997500 ) ) ;
#453 = AXIS2_PLACEMENT_3D ( 'NONE', #627, #503, #239 ) ;
#454 = CARTESIAN_POINT ( 'NONE',  ( 0.8636000000000000300, -0.09852477465767225900, -0.8762999999999998600 ) ) ;
#455 = AXIS2_PLACEMENT_3D ( 'NONE', #123, #194, #829 ) ;
#456 = SURFACE_STYLE_USAGE ( .BOTH. , #525 ) ;
#457 = VECTOR ( 'NONE', #7, 1000.000000000000000 ) ;
#458 = CYLINDRICAL_SURFACE ( 'NONE', #629, 0.8382000000000000600 ) ;
#459 = DIRECTION ( 'NONE',  ( 1.000000000000000000, 0.0000000000000000000, 0.0000000000000000000 ) ) ;
#460 = VERTEX_POINT ( 'NONE', #364 ) ;
#461 = EDGE_LOOP ( 'NONE', ( #294, #576, #558 ) ) ;
#462 = CARTESIAN_POINT ( 'NONE',  ( 0.7811121665981618500, -0.3683323831483550900, -1.147593002167378400 ) ) ;
#463 = CARTESIAN_POINT ( 'NONE',  ( 0.8021100293210918800, 0.3276759039113261700, -1.051520467125058200 ) ) ;
#464 = CARTESIAN_POINT ( 'NONE',  ( 0.0000000000000000000, 0.0000000000000000000, 0.0000000000000000000 ) ) ;
#465 = EDGE_CURVE ( 'NONE', #56, #31, #243, .T. ) ;
#466 = AXIS2_PLACEMENT_3D ( 'NONE', #427, #20, #728 ) ;
#467 = FACE_BOUND ( 'NONE', #236, .T. ) ;
#468 = CONICAL_SURFACE ( 'NONE', #749, 0.8889999999999999000, 0.7853981633974482800 ) ;
#469 = CARTESIAN_POINT ( 'NONE',  ( 0.8636000000000000300, 8.636196754869966500E-022, -1.612899999999999800 ) ) ;
#470 = ORIENTED_EDGE ( 'NONE', *, *, #721, .T. ) ;
#471 = CARTESIAN_POINT ( 'NONE',  ( 0.8636000000000000300, 0.0000000000000000000, -0.7873999999999998800 ) ) ;
#472 = VERTEX_POINT ( 'NONE', #632 ) ;
#473 = ORIENTED_EDGE ( 'NONE', *, *, #449, .T. ) ;
#474 = CARTESIAN_POINT ( 'NONE',  ( 1.042400000000000000, 4.510374161259701900E-017, -1.612899999999999800 ) ) ;
#475 = CARTESIAN_POINT ( 'NONE',  ( -0.8382000000000000600, 1.026498947045311600E-016, -4.902199999999999700 ) ) ;
#476 = EDGE_CURVE ( 'NONE', #472, #140, #553, .T. ) ;
#477 = CARTESIAN_POINT ( 'NONE',  ( 0.7111999999999997200, 9.798399039977970700E-017, 0.8636000000000002600 ) ) ;
#478 = SPHERICAL_SURFACE ( 'NONE', #99, 0.4991099999999997800 ) ;
#479 = VERTEX_POINT ( 'NONE', #494 ) ;
#480 = ADVANCED_FACE ( 'NONE', ( #335 ), #676, .T. ) ;
#481 = EDGE_CURVE ( 'NONE', #554, #44, #41, .T. ) ;
#482 = AXIS2_PLACEMENT_3D ( 'NONE', #663, #782, #341 ) ;
#483 = DIRECTION ( 'NONE',  ( 1.000000000000000000, 0.0000000000000000000, 0.0000000000000000000 ) ) ;
#484 = AXIS2_PLACEMENT_3D ( 'NONE', #378, #686, #30 ) ;
#485 = CARTESIAN_POINT ( 'NONE',  ( -0.5714999999999993400, 0.0000000000000000000, -4.698999999999999800 ) ) ;
#486 = SHAPE_DEFINITION_REPRESENTATION ( #645, #35 ) ;
#487 = FACE_OUTER_BOUND ( 'NONE', #19, .T. ) ;
#488 = CIRCLE ( 'NONE', #455, 0.8636000000000000300 ) ;
#489 = DIRECTION ( 'NONE',  ( -1.000000000000000000, 0.0000000000000000000, 0.0000000000000000000 ) ) ;
#490 = EDGE_LOOP ( 'NONE', ( #128, #601, #766, #197 ) ) ;
#491 = ORIENTED_EDGE ( 'NONE', *, *, #595, .F. ) ;
#492 = VERTEX_POINT ( 'NONE', #740 ) ;
#493 = DIRECTION ( 'NONE',  ( 1.000000000000000000, 0.0000000000000000000, 0.0000000000000000000 ) ) ;
#494 = CARTESIAN_POINT ( 'NONE',  ( 0.4991099999999990000, 0.0000000000000000000, 8.568690000000001900 ) ) ;
#495 =( LENGTH_UNIT ( ) NAMED_UNIT ( * ) SI_UNIT ( .MILLI., .METRE. ) );
#496 =( NAMED_UNIT ( * ) SI_UNIT ( $, .STERADIAN. ) SOLID_ANGLE_UNIT ( ) );
#497 = DIRECTION ( 'NONE',  ( -0.0000000000000000000, -0.0000000000000000000, 1.000000000000000000 ) ) ;
#498 = FACE_OUTER_BOUND ( 'NONE', #700, .T. ) ;
#499 = LINE ( 'NONE', #1, #125 ) ;
#500 = CARTESIAN_POINT ( 'NONE',  ( -1.101886180266435100E-015, 0.0000000000000000000, -0.5082443211581284500 ) ) ;
#501 = ORIENTED_EDGE ( 'NONE', *, *, #505, .F. ) ;
#502 = VERTEX_POINT ( 'NONE', #228 ) ;
#503 = DIRECTION ( 'NONE',  ( -0.0000000000000000000, -0.0000000000000000000, 1.000000000000000000 ) ) ;
#504 = SURFACE_SIDE_STYLE ('',( #589 ) ) ;
#505 = EDGE_CURVE ( 'NONE', #502, #587, #714, .T. ) ;
#506 = AXIS2_PLACEMENT_3D ( 'NONE', #98, #810, #570 ) ;
#507 = CIRCLE ( 'NONE', #482, 0.5714999999999993400 ) ;
#508 = DIRECTION ( 'NONE',  ( -0.0000000000000000000, -0.0000000000000000000, -1.000000000000000000 ) ) ;
#509 = EDGE_CURVE ( 'NONE', #33, #825, #813, .T. ) ;
#510 = VECTOR ( 'NONE', #109, 999.9999999999998900 ) ;
#511 = VERTEX_POINT ( 'NONE', #291 ) ;
#512 = ORIENTED_EDGE ( 'NONE', *, *, #505, .T. ) ;
#513 = ORIENTED_EDGE ( 'NONE', *, *, #614, .F. ) ;
#514 = CARTESIAN_POINT ( 'NONE',  ( 0.5714999999999991200, -8.442951588610513200E-018, -0.8762999999999997500 ) ) ;
#515 = EDGE_CURVE ( 'NONE', #174, #479, #202, .T. ) ;
#516 = DIRECTION ( 'NONE',  ( -0.0000000000000000000, -0.0000000000000000000, 1.000000000000000000 ) ) ;
#517 = CARTESIAN_POINT ( 'NONE',  ( 0.8636000000000000300, 8.636196754869966500E-022, -1.612899999999999800 ) ) ;
#518 = DIRECTION ( 'NONE',  ( -0.0000000000000000000, -0.0000000000000000000, 1.000000000000000000 ) ) ;
#519 = VECTOR ( 'NONE', #545, 1000.000000000000000 ) ;
#520 = CONICAL_SURFACE ( 'NONE', #736, 0.5714999999999989000, 1.047197551196595600 ) ;
#521 = ORIENTED_EDGE ( 'NONE', *, *, #636, .F. ) ;
#522 = CARTESIAN_POINT ( 'NONE',  ( 0.8636000000000000300, -6.307160789069575200E-018, -0.8762999999999997500 ) ) ;
#523 = EDGE_CURVE ( 'NONE', #31, #56, #5, .T. ) ;
#524 = ORIENTED_EDGE ( 'NONE', *, *, #841, .T. ) ;
#525 = SURFACE_SIDE_STYLE ('',( #337 ) ) ;
#526 = DIRECTION ( 'NONE',  ( 0.0000000000000000000, 0.0000000000000000000, -1.000000000000000000 ) ) ;
#527 = DIRECTION ( 'NONE',  ( -1.000000000000000000, 0.0000000000000000000, 0.0000000000000000000 ) ) ;
#528 = DIRECTION ( 'NONE',  ( -1.000000000000000000, 1.224646799147353200E-016, 0.0000000000000000000 ) ) ;
#529 = VECTOR ( 'NONE', #45, 1000.000000000000000 ) ;
#530 = DIRECTION ( 'NONE',  ( -0.0000000000000000000, -0.0000000000000000000, -1.000000000000000000 ) ) ;
#531 = ORIENTED_EDGE ( 'NONE', *, *, #28, .T. ) ;
#532 = ORIENTED_EDGE ( 'NONE', *, *, #158, .T. ) ;
#533 = ORIENTED_EDGE ( 'NONE', *, *, #248, .T. ) ;
#534 = CARTESIAN_POINT ( 'NONE',  ( 0.0000000000000000000, 0.0000000000000000000, -4.902199999999999700 ) ) ;
#535 = CARTESIAN_POINT ( 'NONE',  ( 0.0000000000000000000, 0.0000000000000000000, 0.0000000000000000000 ) ) ;
#536 = DIRECTION ( 'NONE',  ( -1.000000000000000000, 0.0000000000000000000, 0.0000000000000000000 ) ) ;
#537 = AXIS2_PLACEMENT_3D ( 'NONE', #588, #840, #710 ) ;
#538 = CARTESIAN_POINT ( 'NONE',  ( 0.0000000000000000000, -1.707618421664669500E-015, 8.568690000000001900 ) ) ;
#539 = FACE_OUTER_BOUND ( 'NONE', #699, .T. ) ;
#540 = VECTOR ( 'NONE', #355, 1000.000000000000000 ) ;
#541 = ADVANCED_FACE ( 'NONE', ( #696 ), #241, .T. ) ;
#542 = EDGE_LOOP ( 'NONE', ( #531, #213 ) ) ;
#543 = ORIENTED_EDGE ( 'NONE', *, *, #342, .F. ) ;
#544 = ORIENTED_EDGE ( 'NONE', *, *, #77, .T. ) ;
#545 = DIRECTION ( 'NONE',  ( -0.0000000000000000000, -0.0000000000000000000, 1.000000000000000000 ) ) ;
#546 = AXIS2_PLACEMENT_3D ( 'NONE', #704, #648, #394 ) ;
#547 = CARTESIAN_POINT ( 'NONE',  ( 0.8381999999999999500, 0.0000000000000000000, -1.930399999999999700 ) ) ;
#548 = ADVANCED_FACE ( 'NONE', ( #821 ), #741, .F. ) ;
#549 = CARTESIAN_POINT ( 'NONE',  ( 0.4915225573195921600, -0.2939175837292327700, -1.017807324473120300 ) ) ;
#550 = CARTESIAN_POINT ( 'NONE',  ( 0.0000000000000000000, 0.0000000000000000000, -4.902199999999999700 ) ) ;
#551 = AXIS2_PLACEMENT_3D ( 'NONE', #92, #371, #38 ) ;
#552 = CARTESIAN_POINT ( 'NONE',  ( 0.4737284534999619500, -0.3205104095740116100, -1.057017616929678300 ) ) ;
#553 = CIRCLE ( 'NONE', #170, 0.8889999999999999000 ) ;
#554 = VERTEX_POINT ( 'NONE', #385 ) ;
#555 = CARTESIAN_POINT ( 'NONE',  ( 0.0000000000000000000, 0.8382000000000000600, -4.902199999999999700 ) ) ;
#556 = ORIENTED_EDGE ( 'NONE', *, *, #90, .T. ) ;
#557 = DIRECTION ( 'NONE',  ( -0.0000000000000000000, -0.0000000000000000000, 1.000000000000000000 ) ) ;
#558 = ORIENTED_EDGE ( 'NONE', *, *, #465, .T. ) ;
#559 = EDGE_CURVE ( 'NONE', #195, #472, #60, .T. ) ;
#560 = B_SPLINE_CURVE_WITH_KNOTS ( 'NONE', 3,
 ( #16, #675, #22, #549, #552, #81, #348, #156, #612, #89, #10, #220, #737, #284 ),
 .UNSPECIFIED., .F., .F.,
 ( 4, 2, 2, 2, 2, 2, 4 ),
 ( 8.177501554708624100E-021, 0.0002967541566209008000, 0.0004451312349313514800, 0.0005935083132418021500, 0.0008902624698627035000, 0.001038639548173153800, 0.001187016626483604300 ),
 .UNSPECIFIED. ) ;
#561 = CARTESIAN_POINT ( 'NONE',  ( 0.5714999999999992300, 0.04946720234944788900, -1.612899999999999600 ) ) ;
#562 = VECTOR ( 'NONE', #217, 1000.000000000000000 ) ;
#563 = FACE_OUTER_BOUND ( 'NONE', #305, .T. ) ;
#564 = DIRECTION ( 'NONE',  ( -1.000000000000000000, 0.0000000000000000000, 0.0000000000000000000 ) ) ;
#565 = ORIENTED_EDGE ( 'NONE', *, *, #267, .T. ) ;
#566 = ORIENTED_EDGE ( 'NONE', *, *, #515, .F. ) ;
#567 = ORIENTED_EDGE ( 'NONE', *, *, #763, .T. ) ;
#568 = PRODUCT_DEFINITION_CONTEXT ( 'detailed design', #135, 'design' ) ;
#569 = AXIS2_PLACEMENT_3D ( 'NONE', #103, #626, #743 ) ;
#570 = DIRECTION ( 'NONE',  ( 1.000000000000000000, 0.0000000000000000000, 0.0000000000000000000 ) ) ;
#571 = CARTESIAN_POINT ( 'NONE',  ( 0.0000000000000000000, 0.0000000000000000000, 0.8636000000000002600 ) ) ;
#572 = CARTESIAN_POINT ( 'NONE',  ( 0.0000000000000000000, 0.0000000000000000000, 0.6858000000000000800 ) ) ;
#573 = CIRCLE ( 'NONE', #569, 0.8636000000000000300 ) ;
#574 = AXIS2_PLACEMENT_3D ( 'NONE', #464, #209, #66 ) ;
#575 = ORIENTED_EDGE ( 'NONE', *, *, #802, .T. ) ;
#576 = ORIENTED_EDGE ( 'NONE', *, *, #23, .T. ) ;
#577 = CARTESIAN_POINT ( 'NONE',  ( 0.5252869081889057800, 0.2281780169980899000, -1.537474053633647100 ) ) ;
#578 = CARTESIAN_POINT ( 'NONE',  ( 0.4370383484865053600, 0.3682522719826627500, -1.294364762425315800 ) ) ;
#579 = DIRECTION ( 'NONE',  ( 1.000000000000000000, 0.0000000000000000000, 0.0000000000000000000 ) ) ;
#580 =( NAMED_UNIT ( * ) PLANE_ANGLE_UNIT ( ) SI_UNIT ( $, .RADIAN. ) );
#581 = CIRCLE ( 'NONE', #321, 0.4991099999999990000 ) ;
#582 = CARTESIAN_POINT ( 'NONE',  ( 0.5714999999999992300, 0.1003607911488453300, -0.8762999999999997500 ) ) ;
#583 = LINE ( 'NONE', #598, #400 ) ;
#584 = DIRECTION ( 'NONE',  ( 1.000000000000000000, 0.0000000000000000000, 0.0000000000000000000 ) ) ;
#585 = ORIENTED_EDGE ( 'NONE', *, *, #726, .T. ) ;
#586 = EDGE_LOOP ( 'NONE', ( #118, #269, #349, #97, #591, #196 ) ) ;
#587 = VERTEX_POINT ( 'NONE', #637 ) ;
#588 = CARTESIAN_POINT ( 'NONE',  ( 0.0000000000000000000, 0.0000000000000000000, -1.930399999999999700 ) ) ;
#589 = SURFACE_STYLE_FILL_AREA ( #37 ) ;
#590 = CIRCLE ( 'NONE', #49, 0.4991099999999990000 ) ;
#591 = ORIENTED_EDGE ( 'NONE', *, *, #691, .T. ) ;
#592 = DIRECTION ( 'NONE',  ( -1.000000000000000000, 0.0000000000000000000, -0.0000000000000000000 ) ) ;
#593 = EDGE_LOOP ( 'NONE', ( #293, #767 ) ) ;
#594 = CARTESIAN_POINT ( 'NONE',  ( 0.0000000000000000000, 0.0000000000000000000, 1.084202172485504400E-016 ) ) ;
#595 = EDGE_CURVE ( 'NONE', #492, #479, #581, .T. ) ;
#596 = CARTESIAN_POINT ( 'NONE',  ( 0.0000000000000000000, 0.0000000000000000000, 8.568690000000001900 ) ) ;
#597 = AXIS2_PLACEMENT_3D ( 'NONE', #738, #731, #483 ) ;
#598 = CARTESIAN_POINT ( 'NONE',  ( 0.8381999999999999500, 0.0000000000000000000, -1.930399999999999700 ) ) ;
#599 = VECTOR ( 'NONE', #242, 1000.000000000000000 ) ;
#600 = DIRECTION ( 'NONE',  ( 0.0000000000000000000, 1.000000000000000000, 0.0000000000000000000 ) ) ;
#601 = ORIENTED_EDGE ( 'NONE', *, *, #208, .F. ) ;
#602 = VERTEX_POINT ( 'NONE', #703 ) ;
#603 = CARTESIAN_POINT ( 'NONE',  ( 0.0000000000000000000, 0.4991099999999998900, 0.8636000000000001500 ) ) ;
#604 = ORIENTED_EDGE ( 'NONE', *, *, #386, .T. ) ;
#605 = EDGE_LOOP ( 'NONE', ( #163, #473, #524, #259 ) ) ;
#606 = CARTESIAN_POINT ( 'NONE',  ( 0.0000000000000000000, 0.0000000000000000000, 0.0000000000000000000 ) ) ;
#607 = PLANE ( 'NONE',  #361 ) ;
#608 = DIRECTION ( 'NONE',  ( -1.000000000000000000, 0.0000000000000000000, 0.0000000000000000000 ) ) ;
#609 = ADVANCED_FACE ( 'NONE', ( #4 ), #137, .T. ) ;
#610 = FACE_OUTER_BOUND ( 'NONE', #745, .T. ) ;
#611 = CYLINDRICAL_SURFACE ( 'NONE', #177, 1.041400000000000100 ) ;
#612 = CARTESIAN_POINT ( 'NONE',  ( 0.4741998686702851900, -0.3276352721472873800, -1.437484060566437800 ) ) ;
#613 = VERTEX_POINT ( 'NONE', #383 ) ;
#614 = EDGE_CURVE ( 'NONE', #391, #768, #804, .T. ) ;
#615 = ADVANCED_FACE ( 'NONE', ( #289 ), #301, .T. ) ;
#616 = AXIS2_PLACEMENT_3D ( 'NONE', #594, #201, #715 ) ;
#617 = PRODUCT_RELATED_PRODUCT_CATEGORY ( 'part', '', ( #435 ) ) ;
#618 = DIRECTION ( 'NONE',  ( -0.0000000000000000000, -0.0000000000000000000, -1.000000000000000000 ) ) ;
#619 = CARTESIAN_POINT ( 'NONE',  ( 0.0000000000000000000, 0.0000000000000000000, -0.8381999999999998300 ) ) ;
#620 = DIRECTION ( 'NONE',  ( -1.000000000000000000, 0.0000000000000000000, 0.0000000000000000000 ) ) ;
#621 = CARTESIAN_POINT ( 'NONE',  ( 0.0000000000000000000, 0.0000000000000000000, 0.6858000000000000800 ) ) ;
#622 = VECTOR ( 'NONE', #431, 1000.000000000000000 ) ;
#623 = FACE_OUTER_BOUND ( 'NONE', #800, .T. ) ;
#624 = ORIENTED_EDGE ( 'NONE', *, *, #802, .F. ) ;
#625 = ORIENTED_EDGE ( 'NONE', *, *, #182, .T. ) ;
#626 = DIRECTION ( 'NONE',  ( -0.0000000000000000000, -0.0000000000000000000, 1.000000000000000000 ) ) ;
#627 = CARTESIAN_POINT ( 'NONE',  ( 0.0000000000000000000, 0.0000000000000000000, 1.084202172485504400E-016 ) ) ;
#628 = DIRECTION ( 'NONE',  ( -0.0000000000000000000, -0.0000000000000000000, -1.000000000000000000 ) ) ;
#629 = AXIS2_PLACEMENT_3D ( 'NONE', #323, #121, #73 ) ;
#630 = APPLICATION_CONTEXT ( 'automotive_design' ) ;
#631 = VECTOR ( 'NONE', #143, 1000.000000000000000 ) ;
#632 = CARTESIAN_POINT ( 'NONE',  ( -0.8889999999999999000, 0.0000000000000000000, 0.6858000000000000800 ) ) ;
#633 = ORIENTED_EDGE ( 'NONE', *, *, #428, .T. ) ;
#634 = DIRECTION ( 'NONE',  ( -0.0000000000000000000, -0.0000000000000000000, 1.000000000000000000 ) ) ;
#635 = DIRECTION ( 'NONE',  ( -0.0000000000000000000, -0.0000000000000000000, 1.000000000000000000 ) ) ;
#636 = EDGE_CURVE ( 'NONE', #250, #373, #418, .T. ) ;
#637 = CARTESIAN_POINT ( 'NONE',  ( -1.041400000000000100, 1.275347176632053500E-016, -0.7873999999999998800 ) ) ;
#638 = CARTESIAN_POINT ( 'NONE',  ( -0.8889999999999997900, 1.088711004441996700E-016, 0.0000000000000000000 ) ) ;
#639 = CIRCLE ( 'NONE', #792, 0.8382000000000000600 ) ;
#640 = CIRCLE ( 'NONE', #3, 0.8636000000000000300 ) ;
#641 = ORIENTED_EDGE ( 'NONE', *, *, #481, .T. ) ;
#642 = CARTESIAN_POINT ( 'NONE',  ( 0.4461708230972499200, 0.3578757011979343300, -1.343824613198251900 ) ) ;
#643 = EDGE_LOOP ( 'NONE', ( #32, #206, #425, #252 ) ) ;
#644 = CARTESIAN_POINT ( 'NONE',  ( 0.8636000000000000300, -6.307160789069575200E-018, -0.8762999999999997500 ) ) ;
#645 = PRODUCT_DEFINITION_SHAPE ( 'NONE', 'NONE',  #238 ) ;
#646 = DIRECTION ( 'NONE',  ( -0.0000000000000000000, -0.0000000000000000000, 1.000000000000000000 ) ) ;
#647 = CARTESIAN_POINT ( 'NONE',  ( 0.0000000000000000000, 0.0000000000000000000, 0.8636000000000002600 ) ) ;
#648 = DIRECTION ( 'NONE',  ( -0.0000000000000000000, -0.0000000000000000000, 1.000000000000000000 ) ) ;
#649 = COLOUR_RGB ( '',0.7921568627450980000, 0.8196078431372548800, 0.9333333333333333500 ) ;
#650 = EDGE_CURVE ( 'NONE', #142, #185, #684, .T. ) ;
#651 = LINE ( 'NONE', #91, #389 ) ;
#652 = DIRECTION ( 'NONE',  ( 0.0000000000000000000, 0.0000000000000000000, 1.000000000000000000 ) ) ;
#653 = AXIS2_PLACEMENT_3D ( 'NONE', #300, #230, #367 ) ;
#654 = ORIENTED_EDGE ( 'NONE', *, *, #298, .F. ) ;
#655 = CARTESIAN_POINT ( 'NONE',  ( 0.8636000000000000300, 8.636196754869966500E-022, -1.612899999999999800 ) ) ;
#656 = DIRECTION ( 'NONE',  ( -0.7071067811865474600, 0.0000000000000000000, -0.7071067811865475700 ) ) ;
#657 = CARTESIAN_POINT ( 'NONE',  ( 0.8636000000000000300, 0.0000000000000000000, -1.904999999999999600 ) ) ;
#658 = ORIENTED_EDGE ( 'NONE', *, *, #726, .F. ) ;
#659 = EDGE_CURVE ( 'NONE', #410, #613, #794, .T. ) ;
#660 = EDGE_LOOP ( 'NONE', ( #71, #688, #604, #744 ) ) ;
#661 = CARTESIAN_POINT ( 'NONE',  ( -0.8889999999999997900, 1.088711004441996700E-016, 0.0000000000000000000 ) ) ;
#662 = ORIENTED_EDGE ( 'NONE', *, *, #359, .F. ) ;
#663 = CARTESIAN_POINT ( 'NONE',  ( 0.0000000000000000000, 0.0000000000000000000, -4.698999999999999800 ) ) ;
#664 = CARTESIAN_POINT ( 'NONE',  ( 0.5714999999999991200, 6.998856457127112400E-017, -4.902199999999999700 ) ) ;
#665 = AXIS2_PLACEMENT_3D ( 'NONE', #814, #752, #379 ) ;
#666 = CARTESIAN_POINT ( 'NONE',  ( -0.7111999999999997200, 0.0000000000000000000, 0.8636000000000002600 ) ) ;
#667 = CIRCLE ( 'NONE', #393, 0.7746999999999999400 ) ;
#668 = CARTESIAN_POINT ( 'NONE',  ( 0.0000000000000000000, 0.0000000000000000000, -0.8381999999999998300 ) ) ;
#669 = FACE_OUTER_BOUND ( 'NONE', #586, .T. ) ;
#670 = ADVANCED_FACE ( 'NONE', ( #388 ), #231, .F. ) ;
#671 = ORIENTED_EDGE ( 'NONE', *, *, #705, .F. ) ;
#672 = ORIENTED_EDGE ( 'NONE', *, *, #791, .F. ) ;
#673 = ADVANCED_FACE ( 'NONE', ( #467, #437 ), #254, .F. ) ;
#674 = CARTESIAN_POINT ( 'NONE',  ( 0.0000000000000000000, 0.0000000000000000000, 0.0000000000000000000 ) ) ;
#675 = CARTESIAN_POINT ( 'NONE',  ( 0.5714999999999992300, -0.1005107209045190800, -0.8762999999999999700 ) ) ;
#676 = CONICAL_SURFACE ( 'NONE', #134, 0.8381999999999999500, 0.7853981633974482800 ) ;
#677 = CYLINDRICAL_SURFACE ( 'NONE', #695, 0.4991099999999994400 ) ;
#678 = DIRECTION ( 'NONE',  ( 0.7071067811865489100, 8.659560562354951300E-017, -0.7071067811865460200 ) ) ;
#679 = EDGE_LOOP ( 'NONE', ( #382, #680, #633, #327, #411, #245 ) ) ;
#680 = ORIENTED_EDGE ( 'NONE', *, *, #465, .F. ) ;
#681 = CARTESIAN_POINT ( 'NONE',  ( 0.0000000000000000000, 0.0000000000000000000, -4.902199999999999700 ) ) ;
#682 = CARTESIAN_POINT ( 'NONE',  ( 0.0000000000000000000, 0.0000000000000000000, 8.568690000000001900 ) ) ;
#683 = DIRECTION ( 'NONE',  ( 1.000000000000000000, 0.0000000000000000000, 0.0000000000000000000 ) ) ;
#684 = LINE ( 'NONE', #108, #70 ) ;
#685 = LINE ( 'NONE', #13, #357 ) ;
#686 = DIRECTION ( 'NONE',  ( 0.0000000000000000000, -0.0000000000000000000, 1.000000000000000000 ) ) ;
#687 = ORIENTED_EDGE ( 'NONE', *, *, #476, .T. ) ;
#688 = ORIENTED_EDGE ( 'NONE', *, *, #47, .T. ) ;
#689 = CARTESIAN_POINT ( 'NONE',  ( 0.0000000000000000000, 0.0000000000000000000, 0.8636000000000001500 ) ) ;
#690 = EDGE_LOOP ( 'NONE', ( #512, #625, #441, #834 ) ) ;
#691 = EDGE_CURVE ( 'NONE', #142, #757, #803, .T. ) ;
#692 = AXIS2_PLACEMENT_3D ( 'NONE', #761, #508, #181 ) ;
#693 = B_SPLINE_CURVE_WITH_KNOTS ( 'NONE', 3,
 ( #655, #387, #320, #258, #839, #462, #62, #188, #454, #644 ),
 .UNSPECIFIED., .F., .F.,
 ( 4, 2, 2, 2, 4 ),
 ( 0.001165615448401839400, 0.001456757377631580500, 0.001747899306861321700, 0.002039041236091062600, 0.002330183165320803900 ),
 .UNSPECIFIED. ) ;
#694 = DIRECTION ( 'NONE',  ( -1.000000000000000000, 0.0000000000000000000, 0.0000000000000000000 ) ) ;
#695 = AXIS2_PLACEMENT_3D ( 'NONE', #754, #702, #445 ) ;
#696 = FACE_OUTER_BOUND ( 'NONE', #643, .T. ) ;
#697 = CARTESIAN_POINT ( 'NONE',  ( 0.0000000000000000000, 0.0000000000000000000, 8.568690000000001900 ) ) ;
#698 = EDGE_LOOP ( 'NONE', ( #823, #317, #789, #233 ) ) ;
#699 = EDGE_LOOP ( 'NONE', ( #21, #402 ) ) ;
#700 = EDGE_LOOP ( 'NONE', ( #292, #328, #107, #96 ) ) ;
#701 = EDGE_CURVE ( 'NONE', #373, #250, #344, .T. ) ;
#702 = DIRECTION ( 'NONE',  ( -0.0000000000000000000, -0.0000000000000000000, 1.000000000000000000 ) ) ;
#703 = CARTESIAN_POINT ( 'NONE',  ( -0.8636000000000000300, 1.057604975743654300E-016, -1.904999999999999600 ) ) ;
#704 = CARTESIAN_POINT ( 'NONE',  ( 0.0000000000000000000, 0.0000000000000000000, -1.904999999999999600 ) ) ;
#705 = EDGE_CURVE ( 'NONE', #186, #391, #368, .T. ) ;
#706 = VECTOR ( 'NONE', #165, 1000.000000000000000 ) ;
#707 = ORIENTED_EDGE ( 'NONE', *, *, #77, .F. ) ;
#708 = ORIENTED_EDGE ( 'NONE', *, *, #659, .T. ) ;
#709 = ORIENTED_EDGE ( 'NONE', *, *, #182, .F. ) ;
#710 = DIRECTION ( 'NONE',  ( 1.000000000000000000, 0.0000000000000000000, 0.0000000000000000000 ) ) ;
#711 = CARTESIAN_POINT ( 'NONE',  ( 0.0000000000000000000, 0.0000000000000000000, 0.0000000000000000000 ) ) ;
#712 = CARTESIAN_POINT ( 'NONE',  ( 0.7810964266359473600, 0.3683657660488897100, -1.341799537297993000 ) ) ;
#713 = EDGE_CURVE ( 'NONE', #502, #554, #169, .T. ) ;
#714 = CIRCLE ( 'NONE', #665, 1.041400000000000100 ) ;
#715 = DIRECTION ( 'NONE',  ( 1.000000000000000000, 0.0000000000000000000, 0.0000000000000000000 ) ) ;
#716 = ORIENTED_EDGE ( 'NONE', *, *, #763, .F. ) ;
#717 = AXIS2_PLACEMENT_3D ( 'NONE', #306, #628, #564 ) ;
#718 = ORIENTED_EDGE ( 'NONE', *, *, #815, .T. ) ;
#719 = VECTOR ( 'NONE', #310, 1000.000000000000000 ) ;
#720 = VECTOR ( 'NONE', #224, 1000.000000000000000 ) ;
#721 = EDGE_CURVE ( 'NONE', #412, #116, #785, .T. ) ;
#722 = EDGE_LOOP ( 'NONE', ( #164, #544, #358, #450, #234, #360 ) ) ;
#723 = EDGE_LOOP ( 'NONE', ( #716, #214 ) ) ;
#724 = ORIENTED_EDGE ( 'NONE', *, *, #406, .T. ) ;
#725 = ADVANCED_FACE ( 'NONE', ( #498 ), #397, .T. ) ;
#726 = EDGE_CURVE ( 'NONE', #173, #282, #639, .T. ) ;
#727 = AXIS2_PLACEMENT_3D ( 'NONE', #384, #824, #579 ) ;
#728 = DIRECTION ( 'NONE',  ( 1.000000000000000000, 0.0000000000000000000, 0.0000000000000000000 ) ) ;
#729 = ADVANCED_FACE ( 'NONE', ( #210, #539 ), #607, .F. ) ;
#730 = LINE ( 'NONE', #2, #457 ) ;
#731 = DIRECTION ( 'NONE',  ( -0.0000000000000000000, -0.0000000000000000000, 1.000000000000000000 ) ) ;
#732 = CIRCLE ( 'NONE', #506, 0.8889999999999997900 ) ;
#733 = LINE ( 'NONE', #58, #774 ) ;
#734 = CARTESIAN_POINT ( 'NONE',  ( 0.0000000000000000000, 0.0000000000000000000, 0.8636000000000001500 ) ) ;
#735 = EDGE_LOOP ( 'NONE', ( #709, #271, #758, #432 ) ) ;
#736 = AXIS2_PLACEMENT_3D ( 'NONE', #619, #351, #489 ) ;
#737 = CARTESIAN_POINT ( 'NONE',  ( 0.5714999999999993400, -0.04954110178245550000, -1.612900000000000700 ) ) ;
#738 = CARTESIAN_POINT ( 'NONE',  ( 0.0000000000000000000, 0.0000000000000000000, 0.6858000000000000800 ) ) ;
#739 = EDGE_CURVE ( 'NONE', #33, #186, #191, .T. ) ;
#740 = CARTESIAN_POINT ( 'NONE',  ( -6.112334639224337700E-017, -0.4991100000000003300, 8.568690000000001900 ) ) ;
#741 = CONICAL_SURFACE ( 'NONE', #692, 0.7746999999999999400, 0.7853981633974503900 ) ;
#742 = LINE ( 'NONE', #57, #63 ) ;
#743 = DIRECTION ( 'NONE',  ( 1.000000000000000000, 0.0000000000000000000, 0.0000000000000000000 ) ) ;
#744 = ORIENTED_EDGE ( 'NONE', *, *, #240, .F. ) ;
#745 = EDGE_LOOP ( 'NONE', ( #54, #95, #662, #87 ) ) ;
#746 = ORIENTED_EDGE ( 'NONE', *, *, #395, .T. ) ;
#747 = AXIS2_PLACEMENT_3D ( 'NONE', #571, #178, #244 ) ;
#748 = DIRECTION ( 'NONE',  ( -0.0000000000000000000, -0.0000000000000000000, 1.000000000000000000 ) ) ;
#749 = AXIS2_PLACEMENT_3D ( 'NONE', #572, #48, #104 ) ;
#750 = UNCERTAINTY_MEASURE_WITH_UNIT (LENGTH_MEASURE( 1.000000000000000100E-005 ), #329, 'distance_accuracy_value', 'NONE');
#751 = CARTESIAN_POINT ( 'NONE',  ( 0.0000000000000000000, 0.0000000000000000000, 0.0000000000000000000 ) ) ;
#752 = DIRECTION ( 'NONE',  ( -0.0000000000000000000, -0.0000000000000000000, 1.000000000000000000 ) ) ;
#753 = FACE_OUTER_BOUND ( 'NONE', #184, .T. ) ;
#754 = CARTESIAN_POINT ( 'NONE',  ( 0.0000000000000000000, 0.0000000000000000000, 0.0000000000000000000 ) ) ;
#755 = CYLINDRICAL_SURFACE ( 'NONE', #574, 0.8636000000000000300 ) ;
#756 =( GEOMETRIC_REPRESENTATION_CONTEXT ( 3 ) GLOBAL_UNCERTAINTY_ASSIGNED_CONTEXT ( ( #88 ) ) GLOBAL_UNIT_ASSIGNED_CONTEXT ( ( #376, #110, #496 ) ) REPRESENTATION_CONTEXT ( 'NONE', 'WORKASPACE' ) );
#757 = VERTEX_POINT ( 'NONE', #469 ) ;
#758 = ORIENTED_EDGE ( 'NONE', *, *, #713, .T. ) ;
#759 = EDGE_CURVE ( 'NONE', #173, #613, #730, .T. ) ;
#760 = CARTESIAN_POINT ( 'NONE',  ( 0.5714999999999991200, 6.998856457127112400E-017, -4.902199999999999700 ) ) ;
#761 = CARTESIAN_POINT ( 'NONE',  ( 0.0000000000000000000, 0.0000000000000000000, -4.902199999999999700 ) ) ;
#762 = CARTESIAN_POINT ( 'NONE',  ( 0.4736186911033176100, 0.3206800294058047600, -1.057208717989632800 ) ) ;
#763 = EDGE_CURVE ( 'NONE', #174, #460, #279, .T. ) ;
#764 = PRESENTATION_LAYER_ASSIGNMENT (  '', '', ( #18 ) ) ;
#765 = CARTESIAN_POINT ( 'NONE',  ( 1.042400000000000000, 0.0000000000000000000, -1.244599999999999700 ) ) ;
#766 = ORIENTED_EDGE ( 'NONE', *, *, #614, .T. ) ;
#767 = ORIENTED_EDGE ( 'NONE', *, *, #784, .F. ) ;
#768 = VERTEX_POINT ( 'NONE', #295 ) ;
#769 = DIRECTION ( 'NONE',  ( 0.0000000000000000000, 1.000000000000000000, 0.0000000000000000000 ) ) ;
#770 = CARTESIAN_POINT ( 'NONE',  ( 0.0000000000000000000, 0.0000000000000000000, -0.7873999999999998800 ) ) ;
#771 = CARTESIAN_POINT ( 'NONE',  ( 0.0000000000000000000, 0.8889999999999997900, 5.421010862427522200E-017 ) ) ;
#772 = DIRECTION ( 'NONE',  ( -1.224646799147353500E-016, -1.000000000000000000, 0.0000000000000000000 ) ) ;
#773 = FACE_OUTER_BOUND ( 'NONE', #8, .T. ) ;
#774 = VECTOR ( 'NONE', #646, 1000.000000000000000 ) ;
#775 = CARTESIAN_POINT ( 'NONE',  ( 0.0000000000000000000, 0.0000000000000000000, -4.902199999999999700 ) ) ;
#776 = ORIENTED_EDGE ( 'NONE', *, *, #112, .F. ) ;
#777 = DIRECTION ( 'NONE',  ( 0.7071067811865474600, 8.659560562354931600E-017, -0.7071067811865475700 ) ) ;
#778 = EDGE_CURVE ( 'NONE', #613, #410, #831, .T. ) ;
#779 = DIRECTION ( 'NONE',  ( -0.0000000000000000000, -0.0000000000000000000, 1.000000000000000000 ) ) ;
#780 = DIRECTION ( 'NONE',  ( 1.000000000000000000, 0.0000000000000000000, 0.0000000000000000000 ) ) ;
#781 = CARTESIAN_POINT ( 'NONE',  ( 0.8636000000000001500, 0.09714522600850394900, -1.612899999999999800 ) ) ;
#782 = DIRECTION ( 'NONE',  ( -0.0000000000000000000, -0.0000000000000000000, -1.000000000000000000 ) ) ;
#783 = DIRECTION ( 'NONE',  ( 1.000000000000000000, 0.0000000000000000000, 0.0000000000000000000 ) ) ;
#784 = EDGE_CURVE ( 'NONE', #511, #768, #667, .T. ) ;
#785 = CIRCLE ( 'NONE', #155, 0.4991099999999990000 ) ;
#786 = CARTESIAN_POINT ( 'NONE',  ( 0.0000000000000000000, 0.0000000000000000000, -4.902199999999999700 ) ) ;
#787 = VECTOR ( 'NONE', #837, 999.9999999999998900 ) ;
#788 = ORIENTED_EDGE ( 'NONE', *, *, #778, .T. ) ;
#789 = ORIENTED_EDGE ( 'NONE', *, *, #420, .T. ) ;
#790 = ORIENTED_EDGE ( 'NONE', *, *, #523, .F. ) ;
#791 = EDGE_CURVE ( 'NONE', #282, #173, #221, .T. ) ;
#792 = AXIS2_PLACEMENT_3D ( 'NONE', #136, #207, #783 ) ;
#793 = ADVANCED_FACE ( 'NONE', ( #147 ), #446, .F. ) ;
#794 = CIRCLE ( 'NONE', #537, 0.8381999999999999500 ) ;
#795 = ADVANCED_FACE ( 'NONE', ( #266, #114 ), #365, .F. ) ;
#796 = LINE ( 'NONE', #474, #380 ) ;
#797 = ADVANCED_FACE ( 'NONE', ( #753, #93 ), #309, .F. ) ;
#798 = ORIENTED_EDGE ( 'NONE', *, *, #420, .F. ) ;
#799 = CARTESIAN_POINT ( 'NONE',  ( -0.8381999999999999500, 1.026498947045311500E-016, -1.930399999999999700 ) ) ;
#800 = EDGE_LOOP ( 'NONE', ( #624, #746, #390, #491, #339 ) ) ;
#801 = DIRECTION ( 'NONE',  ( -0.0000000000000000000, -0.0000000000000000000, 1.000000000000000000 ) ) ;
#802 = EDGE_CURVE ( 'NONE', #460, #116, #811, .T. ) ;
#803 = B_SPLINE_CURVE_WITH_KNOTS ( 'NONE', 3,
 ( #522, #203, #261, #463, #131, #712, #263, #332, #781, #517 ),
 .UNSPECIFIED., .F., .F.,
 ( 4, 2, 2, 2, 4 ),
 ( 6.119416366914080800E-021, 0.0002914038621004598400, 0.0005828077242009196800, 0.0008742115863013795800, 0.001165615448401839400 ),
 .UNSPECIFIED. ) ;
#804 = LINE ( 'NONE', #828, #124 ) ;
#805 = LINE ( 'NONE', #120, #787 ) ;
#806 = EDGE_LOOP ( 'NONE', ( #708, #347, #776, #433 ) ) ;
#807 = VERTEX_POINT ( 'NONE', #94 ) ;
#808 = CARTESIAN_POINT ( 'NONE',  ( 0.5714999999999991200, 6.999300993824760300E-017, -1.612899999999999800 ) ) ;
#809 = DIRECTION ( 'NONE',  ( 0.0000000000000000000, -0.0000000000000000000, 1.000000000000000000 ) ) ;
#810 = DIRECTION ( 'NONE',  ( -0.0000000000000000000, -0.0000000000000000000, 1.000000000000000000 ) ) ;
#811 = LINE ( 'NONE', #34, #325 ) ;
#812 = CIRCLE ( 'NONE', #616, 1.041400000000000100 ) ;
#813 = B_SPLINE_CURVE_WITH_KNOTS ( 'NONE', 3,
 ( #808, #561, #42, #312, #577, #820, #50, #642, #578, #111, #314, #762, #444, #246, #582, #514 ),
 .UNSPECIFIED., .F., .F.,
 ( 4, 2, 2, 2, 2, 2, 2, 4 ),
 ( 0.001187016626483604300, 0.001335172373786790300, 0.001483328121089976300, 0.001631483868393162000, 0.001779639615696348000, 0.001927795362999533800, 0.002075951110302719600, 0.002372262604909091500 ),
 .UNSPECIFIED. ) ;
#814 = CARTESIAN_POINT ( 'NONE',  ( 0.0000000000000000000, 0.0000000000000000000, -0.7873999999999998800 ) ) ;
#815 = EDGE_CURVE ( 'NONE', #31, #825, #27, .T. ) ;
#816 = VERTEX_POINT ( 'NONE', #500 ) ;
#817 = AXIS2_PLACEMENT_3D ( 'NONE', #46, #187, #319 ) ;
#818 = CARTESIAN_POINT ( 'NONE',  ( -0.5714999999999991200, 0.0000000000000000000, -4.902199999999999700 ) ) ;
#819 = CARTESIAN_POINT ( 'NONE',  ( 0.8889999999999997900, 0.0000000000000000000, 0.0000000000000000000 ) ) ;
#820 = CARTESIAN_POINT ( 'NONE',  ( 0.4913374468328828800, 0.2942431931168238400, -1.471009721605324600 ) ) ;
#821 = FACE_OUTER_BOUND ( 'NONE', #490, .T. ) ;
#822 = LINE ( 'NONE', #176, #510 ) ;
#823 = ORIENTED_EDGE ( 'NONE', *, *, #90, .F. ) ;
#824 = DIRECTION ( 'NONE',  ( -0.0000000000000000000, -0.0000000000000000000, 1.000000000000000000 ) ) ;
#825 = VERTEX_POINT ( 'NONE', #303 ) ;
#826 = CARTESIAN_POINT ( 'NONE',  ( 0.5714999999999991200, 6.999300993824760300E-017, -1.612899999999999800 ) ) ;
#827 = CARTESIAN_POINT ( 'NONE',  ( 0.0000000000000000000, -1.707618421664669500E-015, 8.568690000000001900 ) ) ;
#828 = CARTESIAN_POINT ( 'NONE',  ( -0.7746999999999999400, 0.0000000000000000000, -4.902199999999999700 ) ) ;
#829 = DIRECTION ( 'NONE',  ( 1.000000000000000000, 0.0000000000000000000, 0.0000000000000000000 ) ) ;
#830 = AXIS2_PLACEMENT_3D ( 'NONE', #734, #86, #493 ) ;
#831 = CIRCLE ( 'NONE', #255, 0.8381999999999999500 ) ;
#832 = LINE ( 'NONE', #264, #302 ) ;
#833 =( NAMED_UNIT ( * ) SI_UNIT ( $, .STERADIAN. ) SOLID_ANGLE_UNIT ( ) );
#834 = ORIENTED_EDGE ( 'NONE', *, *, #713, .F. ) ;
#835 = ORIENTED_EDGE ( 'NONE', *, *, #509, .F. ) ;
#836 = CARTESIAN_POINT ( 'NONE',  ( 1.041400000000000100, 0.0000000000000000000, 0.0000000000000000000 ) ) ;
#837 = DIRECTION ( 'NONE',  ( 0.8660254037844377100, 1.060575238724905700E-016, -0.5000000000000017800 ) ) ;
#838 = DIRECTION ( 'NONE',  ( -0.0000000000000000000, -0.0000000000000000000, -1.000000000000000000 ) ) ;
#839 = CARTESIAN_POINT ( 'NONE',  ( 0.7811427231004697300, -0.3682675758610908200, -1.341852736072773700 ) ) ;
#840 = DIRECTION ( 'NONE',  ( -0.0000000000000000000, -0.0000000000000000000, 1.000000000000000000 ) ) ;
#841 = EDGE_CURVE ( 'NONE', #847, #140, #407, .T. ) ;
#842 = CARTESIAN_POINT ( 'NONE',  ( 0.4991099999999998900, 0.0000000000000000000, 0.8636000000000001500 ) ) ;
#843 = PRESENTATION_STYLE_ASSIGNMENT (( #40 ) ) ;
#844 = AXIS2_PLACEMENT_3D ( 'NONE', #775, #838, #527 ) ;
#845 = LINE ( 'NONE', #799, #540 ) ;
#846 = COLOUR_RGB ( '',0.7921568627450980000, 0.8196078431372548800, 0.9333333333333333500 ) ;
#847 = VERTEX_POINT ( 'NONE', #819 ) ;
#848 = DIRECTION ( 'NONE',  ( 1.000000000000000000, 0.0000000000000000000, 0.0000000000000000000 ) ) ;
ENDSEC;
END-ISO-10303-21;
